<?xml version="1.0" standalone="no"?>
<!DOCTYPE svg PUBLIC "-//W3C//DTD SVG 1.1//EN" "http://www.w3.org/Graphics/SVG/1.1/DTD/svg11.dtd" >
<svg>
<metadata>
Created by FontForge 20090622 at Tue Mar  5 06:18:31 2019
 By deploy user
Typeface &#194;&#169; (your company). 2018. All Rights Reserved
</metadata>
<defs>
<font id="StylisticSign" horiz-adv-x="508" >
  <font-face 
    font-family="Stylistic Sign"
    font-weight="400"
    font-stretch="normal"
    units-per-em="2048"
    panose-1="2 0 5 0 0 0 0 0 0 0"
    ascent="1638"
    descent="-410"
    x-height="445"
    cap-height="943"
    bbox="-349.8 -883.008 1374.5 1675.16"
    underline-thickness="150"
    underline-position="-142"
    unicode-range="U+001D-U+00BF"
  />
<missing-glyph horiz-adv-x="1024" 
d="M100 0v1434h824v-1434h-824zM150 50h724v1334h-724v-1334zM325 1148q31 28 58 43q53 30 112 30q92 0 148 -47.5t56 -127.5q0 -49 -23 -98.5t-87 -129.5q-63 -80 -99 -132t-36 -99q0 -38 24 -133h-32q-35 97 -35 148q0 76 81.5 218t81.5 217q0 57 -33 90t-91 33
q-38 0 -69 -17q-26 -15 -56 -40v45zM389 334l57 58q11 10 20 10q10 0 22 -11l56 -60q9 -11 9 -20q0 -11 -10 -22l-56 -62q-14 -14 -21 -14q-11 0 -20 10l-61 71q-7 9 -7 18q0 10 11 22z" />
    <glyph glyph-name=".notdef" horiz-adv-x="1024" 
d="M100 0v1434h824v-1434h-824zM150 50h724v1334h-724v-1334zM325 1148q31 28 58 43q53 30 112 30q92 0 148 -47.5t56 -127.5q0 -49 -23 -98.5t-87 -129.5q-63 -80 -99 -132t-36 -99q0 -38 24 -133h-32q-35 97 -35 148q0 76 81.5 218t81.5 217q0 57 -33 90t-91 33
q-38 0 -69 -17q-26 -15 -56 -40v45zM389 334l57 58q11 10 20 10q10 0 22 -11l56 -60q9 -11 9 -20q0 -11 -10 -22l-56 -62q-14 -14 -21 -14q-11 0 -20 10l-61 71q-7 9 -7 18q0 10 11 22z" />
    <glyph glyph-name=".null" horiz-adv-x="0" 
 />
    <glyph glyph-name=".null" horiz-adv-x="0" 
 />
    <glyph glyph-name="nonmarkingreturn" 
 />
    <glyph glyph-name="space" unicode=" " 
 />
    <glyph glyph-name="space" unicode="&#xa0;" 
 />
    <glyph glyph-name="exclam" unicode="!" horiz-adv-x="443" 
d="M256 161v0q0 -11 -7 -18.5t-18 -7.5q-10 0 -17.5 7.5t-7.5 18.5v545q0 10 7.5 17.5t17.5 7.5q11 0 18 -7.5t7 -17.5v-545zM180 43v0q0 21 15 36t36 15t35.5 -15t14.5 -36t-14.5 -35.5t-35.5 -14.5t-36 14.5t-15 35.5z" />
    <glyph glyph-name="quotedbl" unicode="&#x22;" horiz-adv-x="429" 
d="M151 493v0q-9 6 -11 15.5t4 19.5q7 11 8 27.5t-0.5 30t-1.5 15.5v0q-1 11 5 19t17 9q10 1 18 -5t10 -16v0q1 -2 2.5 -20.5t-1.5 -43t-15 -44.5q-6 -9 -16 -11t-19 4zM246 493v0q-9 6 -11 15.5t4 19.5q6 11 7.5 27.5t0 30t-1.5 15.5v0q-1 11 5 19t16 9q11 1 19 -5t10 -16
v0q0 -3 1.5 -21.5t-1 -43t-15.5 -43.5q-6 -9 -15.5 -11t-18.5 4z" />
    <glyph glyph-name="numbersign" unicode="#" horiz-adv-x="952" 
d="M523 160v0h-125l-78 -153q-5 -10 -14.5 -13t-19.5 2q-9 5 -12 14.5t1 19.5l67 130h-147q-10 0 -17.5 7t-7.5 18q0 10 7.5 17.5t17.5 7.5h172l47 91h-157q-10 0 -17.5 7.5t-7.5 17.5t7.5 17.5t17.5 7.5h183l83 164q5 9 14.5 12.5t19.5 -1.5q9 -5 12.5 -14.5t-1.5 -19.5
l-72 -141h125l83 164q6 9 15.5 12.5t18.5 -1.5q10 -5 13 -14.5t-2 -19.5l-72 -141h126q10 0 17.5 -7.5t7.5 -17.5t-7.5 -17.5t-17.5 -7.5h-152l-46 -91h136q10 0 17.5 -7.5t7.5 -17.5q0 -11 -7.5 -18t-17.5 -7h-162l-78 -153q-5 -10 -14.5 -13t-19.5 2q-9 5 -12 14.5t2 19.5
zM470 301v0l-46 -91h125l46 91h-125z" />
    <glyph glyph-name="dollar" unicode="$" horiz-adv-x="849" 
d="M566 1037v0q71 -30 126 -97t81 -174q3 -11 -2.5 -19.5t-15.5 -10.5q-11 -3 -19.5 2.5t-11.5 15.5q-23 94 -70 152.5t-108 84.5q-64 27 -132 23v-568q57 -22 101 -54.5t66 -87.5q26 -76 8.5 -139.5t-63.5 -106.5q-47 -44 -107 -58l-5 -1v-57q0 -10 -7.5 -17.5t-17.5 -7.5
q-11 0 -18.5 7.5t-7.5 17.5v53q-33 2 -64 15q-54 22 -93 84t-48 170q0 10 6.5 18t17.5 9q11 0 18.5 -6.5t8.5 -17.5q7 -91 37.5 -142.5t72.5 -68.5q22 -9 44 -10v367l-13 5q-68 25 -130 60t-100 97.5t-33 170.5q6 89 48 156t108 107q56 36 120 49v46q0 11 7.5 18t18.5 7
q10 0 17.5 -7t7.5 -18v-40q78 5 152 -27zM363 467v0v539q-50 -12 -94 -39q-55 -35 -91 -92t-41 -132q-4 -89 28.5 -141.5t85.5 -82.5t112 -52zM533 287v0q-14 37 -45.5 61.5t-73.5 42.5v-340q43 12 77 43q36 34 49.5 83.5t-7.5 109.5z" />
    <glyph glyph-name="percent" unicode="%" horiz-adv-x="852" 
d="M631 735v0q10 -5 13 -14.5t-2 -19.5l-351 -687q-5 -10 -14.5 -13t-19.5 2q-9 5 -12 14.5t1 19.5l351 687q5 9 15 12.5t19 -1.5zM352 721v0q42 0 71 -40q25 -37 25 -86q0 -50 -25 -86q-29 -40 -71 -40t-70 40q-26 36 -26 86q0 49 26 86q28 40 70 40zM381 538v0
q17 23 17 57t-17 57q-13 18 -29 18t-29 -18q-16 -23 -16 -57t16 -57q13 -19 29 -19t29 19zM554 279v0q42 0 70 -40q26 -37 26 -86q0 -50 -26 -86q-28 -40 -70 -40t-71 40q-25 36 -25 86q0 49 25 86q29 40 71 40zM583 96v0q16 23 16 57t-16 57q-13 19 -29 19t-30 -19
q-16 -23 -16 -57t16 -57q14 -19 30 -19t29 19z" />
    <glyph glyph-name="ampersand" unicode="&#x26;" horiz-adv-x="882" 
d="M755 42v0q4 -10 0 -19.5t-14 -13.5q-93 -33 -172 37q-32 -18 -65 -29q-93 -32 -176 -20q-84 13 -136 63q-45 43 -50 105q-4 95 45.5 187.5t119.5 170.5q-10 27 -18 51q-1 2 -2 5l-7 18q-25 78 7.5 126.5t90.5 68.5q44 15 85 14q45 -2 71 -25q46 -39 -18 -113
q-16 -17 -43 -43q-48 -46 -108 -112l27 -70q37 -95 83 -185t99 -149q74 49 133 143q6 9 15.5 11.5t18.5 -2.5q9 -6 11.5 -16t-2.5 -19q-60 -98 -137 -152q53 -39 110 -18q10 3 19 -1t13 -13zM396 745v0q-40 -14 -62.5 -46.5t-6.5 -83.5l7 -19l11 -30l93 95l42 41
q30 34 19 43q-11 10 -38 11q-31 1 -65 -11zM488 64v0q22 8 44 19q-57 65 -103.5 156t-83.5 185l-18 45q-59 -69 -98.5 -146.5t-36.5 -153.5q4 -43 35 -73q40 -38 109 -49q70 -11 152 17z" />
    <glyph glyph-name="quotesingle" unicode="'" horiz-adv-x="191" 
d="M77 496v0q-9 7 -11 16.5t4 18.5q7 12 8 28.5t-0.5 30t-1.5 15.5v0q-1 11 5 19t17 9q10 1 18 -5t10 -16v-1q0 -2 2 -20.5t-1 -43t-15 -44.5q-7 -8 -16.5 -10t-18.5 3z" />
    <glyph glyph-name="parenleft" unicode="(" horiz-adv-x="401" 
d="M312 30v0q9 -7 11 -16.5t-4 -18.5t-16 -11t-19 4l-12 8l1 1h-1q-71 58 -115 180.5t-53 276.5q-9 152 22.5 303t109.5 269q10 15 22 30q7 8 17 9.5t19 -5.5q8 -7 9 -17t-5 -18l-20 -27q-73 -111 -102.5 -254t-20.5 -288q8 -143 47 -255.5t102 -164.5v0z" />
    <glyph glyph-name="parenright" unicode=")" horiz-adv-x="514" 
d="M341 458v0q-9 -154 -52.5 -276.5t-115.5 -180.5v0v-1q-5 -4 -11 -8q-9 -6 -19 -4t-16 11t-4 18.5t10 16.5q4 3 9 6v0q63 52 101.5 164.5t47.5 255.5q8 145 -21 288t-102 254l-20 27q-7 8 -5.5 18t9.5 17t18 5.5t17 -9.5q12 -15 22 -30q78 -118 109.5 -269t22.5 -303z" />
    <glyph glyph-name="asterisk" unicode="*" horiz-adv-x="847" 
d="M537 1184v0q-8 -8 -18 -8t-18 8l-75 74v-102q0 -11 -7 -18t-18 -7q-10 0 -17.5 7t-7.5 18v94l-67 -66q-8 -8 -17.5 -8t-18.5 8q-7 8 -7 17.5t7 17.5l67 67h-94q-11 0 -18 7.5t-7 17.5q0 11 7 18t18 7h102l-67 67q-7 8 -7 18t7 18q9 7 18.5 7t17.5 -7l59 -59v86
q0 11 7.5 18.5t17.5 7.5q11 0 18 -7.5t7 -18.5v-94l67 67q8 7 18 7t18 -7q7 -8 7 -18t-7 -18l-67 -67h94q11 0 18.5 -7t7.5 -18q0 -10 -7.5 -17.5t-18.5 -7.5h-86l67 -67q7 -8 7 -17.5t-7 -17.5z" />
    <glyph glyph-name="plus" unicode="+" horiz-adv-x="660" 
d="M570 445v0q0 -11 -7.5 -18t-18.5 -7h-191v-192q0 -11 -7.5 -18t-18.5 -7q-10 0 -17.5 7t-7.5 18v192h-192q-10 0 -17.5 7t-7.5 18q0 10 7.5 17.5t17.5 7.5h192v192q0 10 7.5 17.5t17.5 7.5q11 0 18.5 -7.5t7.5 -17.5v-192h191q11 0 18.5 -7.5t7.5 -17.5z" />
    <glyph glyph-name="comma" unicode="," horiz-adv-x="259" 
d="M90 -101v0q-9 6 -11 16t4 19q7 11 8 27.5t0 30t-2 15.5v0q-1 11 5 19t17 9q10 2 18 -4.5t10 -16.5v0q1 -2 2.5 -20.5t-1.5 -43t-15 -44.5q-6 -9 -16 -11t-19 4z" />
    <glyph glyph-name="hyphen" unicode="-" horiz-adv-x="537" 
d="M101 257v0q0 11 7.5 18t18.5 7h300q10 0 17.5 -7t7.5 -18q0 -10 -7.5 -17.5t-17.5 -7.5h-300q-11 0 -18.5 7.5t-7.5 17.5z" />
    <glyph glyph-name="hyphen" unicode="&#xad;" horiz-adv-x="537" 
d="M101 257v0q0 11 7.5 18t18.5 7h300q10 0 17.5 -7t7.5 -18q0 -10 -7.5 -17.5t-17.5 -7.5h-300q-11 0 -18.5 7.5t-7.5 17.5z" />
    <glyph glyph-name="period" unicode="." horiz-adv-x="305" 
d="M164 178v0q17 0 28.5 -12t11.5 -28q0 -17 -11.5 -29t-28.5 -12t-29 12t-12 29q0 16 12 28t29 12z" />
    <glyph glyph-name="slash" unicode="/" horiz-adv-x="569" 
d="M485 701v0l-351 -687q-5 -10 -14.5 -13t-19.5 2q-9 5 -12 14.5t2 19.5l351 687q5 9 14.5 12.5t18.5 -1.5q10 -5 13 -14.5t-2 -19.5z" />
    <glyph glyph-name="colon" unicode=":" horiz-adv-x="401" 
d="M197 420v0q17 0 28.5 -11.5t11.5 -28.5t-11.5 -28.5t-28.5 -11.5t-28.5 11.5t-11.5 28.5t11.5 28.5t28.5 11.5zM197 85v0q17 0 28.5 -11.5t11.5 -28.5t-11.5 -29t-28.5 -12t-28.5 12t-11.5 29t11.5 28.5t28.5 11.5z" />
    <glyph glyph-name="semicolon" unicode=";" horiz-adv-x="383" 
d="M196 62v0q11 1 19 -5t10 -17v0q0 -2 1.5 -20.5t-1 -43t-15.5 -44.5q-6 -8 -15.5 -10t-18.5 3q-9 7 -11 16.5t4 18.5q6 12 7.5 28.5t0 30t-1.5 15.5v0q-1 11 5 18.5t16 9.5zM196 393v0q17 0 28.5 -11.5t11.5 -28.5t-11.5 -28.5t-28.5 -11.5t-29 11.5t-12 28.5t12 28.5
t29 11.5z" />
    <glyph glyph-name="semicolon" unicode="&#x37e;" horiz-adv-x="383" 
d="M196 62v0q11 1 19 -5t10 -17v0q0 -2 1.5 -20.5t-1 -43t-15.5 -44.5q-6 -8 -15.5 -10t-18.5 3q-9 7 -11 16.5t4 18.5q6 12 7.5 28.5t0 30t-1.5 15.5v0q-1 11 5 18.5t16 9.5zM196 393v0q17 0 28.5 -11.5t11.5 -28.5t-11.5 -28.5t-28.5 -11.5t-29 11.5t-12 28.5t12 28.5
t29 11.5z" />
    <glyph glyph-name="less" unicode="&#x3c;" horiz-adv-x="700" 
d="M473 256v0q9 -6 11 -16t-4 -19t-16 -11t-19 4l-262 175v0q-3 2 -6 5q-6 8 -5 18t9 17l253 210q9 7 19 6t17 -9q6 -9 5 -19t-9 -17l-227 -188z" />
    <glyph glyph-name="equal" unicode="=" horiz-adv-x="939" 
d="M701 367v0q11 0 18 -7t7 -18q0 -10 -7 -17.5t-18 -7.5h-434q-10 0 -17.5 7.5t-7.5 17.5q0 11 7.5 18t17.5 7h434zM701 579v0q11 0 18 -7t7 -18q0 -10 -7 -17.5t-18 -7.5h-434q-10 0 -17.5 7.5t-7.5 17.5q0 11 7.5 18t17.5 7h434z" />
    <glyph glyph-name="greater" unicode="&#x3e;" horiz-adv-x="617" 
d="M463 401v0v0l-262 -175q-9 -6 -19 -4t-16 11t-4 19t11 16l234 156l-228 188q-8 7 -9 17t6 19q7 8 17 9t18 -6l254 -210q8 -7 9 -17t-6 -18q-2 -3 -5 -5z" />
    <glyph glyph-name="question" unicode="?" horiz-adv-x="684" 
d="M303 35v0q0 -16 -12 -28t-28 -12q-17 0 -29 12t-12 28q0 17 12 29t29 12q16 0 28 -12t12 -29zM476 755v0q47 -32 77.5 -86t34.5 -127q3 -123 -50 -175t-121 -79q-38 -17 -69 -38.5t-44 -57.5q-3 -10 -12 -15t-19 -2q-10 4 -15 12.5t-2 19.5q17 51 55 78.5t84 47.5
q57 23 101 65.5t42 141.5q-11 121 -90 173q-35 24 -76 27q-40 4 -77 -14q-79 -36 -112 -178q-2 -10 -10.5 -15.5t-18.5 -3.5q-11 2 -16.5 10.5t-3.5 18.5q17 84 53.5 136.5t84.5 75.5q51 25 105 20q53 -5 99 -35z" />
    <glyph glyph-name="at" unicode="@" horiz-adv-x="1103" 
d="M783 827v0q72 -42 109 -120.5t21 -193.5q-20 -130 -44.5 -204t-50.5 -102q-31 -33 -63 -28q-30 5 -52 34q-24 31 -38 79t-14 91v163q-43 -124 -147 -276q-57 -76 -99 -77q-37 -2 -57 32q-16 27 -21 69q-8 72 10.5 158.5t61.5 140.5q66 73 131 77t103 -14q19 76 18 80
q2 10 10 16t19 5q9 -2 15 -9t6 -16v0v-349q0 -36 11.5 -75t29.5 -64q11 -14 20 -15q7 -1 18 11q44 41 83 281q14 97 -16.5 163t-89.5 100q-54 32 -120 38q-67 6 -137 -13q-99 -27 -175.5 -107t-97.5 -213q-22 -188 47 -289q41 -63 102 -97q63 -36 135 -45q159 -19 283 56
q9 6 19 3.5t16 -10.5q5 -10 3 -19.5t-11 -15.5q-140 -85 -317 -64q-82 11 -153 51q-72 41 -120 114q-78 116 -54 323q24 150 110.5 240t199.5 122q78 21 155 14t141 -45zM463 300v0q61 85 98.5 165t57.5 142q-27 15 -78 13.5t-103 -59.5q-37 -47 -52.5 -122.5t-8.5 -138.5
q4 -32 14 -49q5 -8 10 -8q20 0 62 57z" />
    <glyph glyph-name="A" unicode="A" horiz-adv-x="847" 
d="M864 388v0q11 -1 17.5 -9t5.5 -18q-1 -11 -9 -17.5t-18 -5.5h-1q-17 2 -138 9q17 -268 -36 -488q-3 -10 -12 -15t-19 -3q-10 3 -15.5 11.5t-2.5 19.5q52 215 35 477q-111 6 -236.5 5.5t-221.5 -13.5q-9 -138 -6.5 -225.5t3.5 -91.5q0 -10 -6.5 -18t-17.5 -9q-8 0 -14 4v0
q-81 45 -127 105q-32 43 -39 89q-8 48 16 93q18 31 54 59q30 22 90 34q11 149 49.5 309.5t116.5 295.5q47 76 97 86q64 13 118 -56q46 -59 83 -166q0 -1 1 -2q64 -191 86 -451q65 -3 104.5 -6t42.5 -3v0zM157 70v0q-5 86 5 260q-36 -9 -56 -23q-27 -21 -40 -44
q-16 -29 -11 -60q6 -33 31 -66q27 -36 71 -67zM217 390v0q100 13 221.5 14t228.5 -4q-22 248 -84 431l-1 2q-34 99 -75 152q-34 45 -67 38q-30 -6 -65 -63q-73 -126 -109.5 -277t-48.5 -293z" />
    <glyph glyph-name="B" unicode="B" horiz-adv-x="741" 
d="M-14 23v0q9 5 20 9v274q-34 -2 -55 24q-27 34 -15.5 69t52.5 67q8 7 18 13v350q-33 -16 -52.5 -28t-19.5 -13q-9 -5 -19 -3t-16 10q-6 9 -4 19t11 16q1 1 28 17.5t72 36.5v64q0 11 7 18t18 7q10 0 17.5 -7t7.5 -18v-43q72 27 150 28t140 -54q47 -51 29.5 -134t-74.5 -173
q32 2 63 -1q109 -6 180.5 -69t64.5 -203v0v0q-2 -25 -11 -52q-5 -16 -12 -33q124 27 170 25q10 -1 17 -8.5t6 -18.5q-1 -10 -8.5 -17t-18.5 -6q-51 2 -198 -33q-82 -123 -226 -225q-98 -70 -203 -110t-196 -35q-30 2 -57 10q-57 19 -72 47v0q-25 50 41 100q51 39 145 80z
M299 -28v0q107 75 180 165q-218 -57 -423 -138v-118q0 -10 -7.5 -17.5t-17.5 -7.5q-11 0 -18 7.5t-7 17.5v96q-88 -38 -134 -74q-32 -25 -28 -35v0v0q6 -12 43 -23q22 -7 46 -9q82 -5 178.5 33t187.5 103zM56 852v0v-344q45 23 99 39q39 11 81 18l8 12q55 81 78 154.5
t-11 110.5q-52 46 -121.5 41.5t-133.5 -31.5zM56 452v0v-73q41 27 87 74q23 24 46 51l-20 -6q-65 -19 -113 -46zM-10 361v0q5 -6 16 -4v58q-32 -31 -16 -54zM56 321v0v-268q233 89 465 146q19 32 29 63q7 21 8 41v0q6 112 -51.5 162.5t-146.5 55.5q-47 3 -96 -3
q-40 -55 -85 -100q-58 -60 -110 -90q-7 -3 -13 -7z" />
    <glyph glyph-name="C" unicode="C" horiz-adv-x="619" 
d="M538 115q-120 -98 -227.5 -115t-174.5 41q-86 77 -113 229t-8 320q20 170 74 299t129 157q58 21 117.5 -40t113.5 -226q3 -10 -1.5 -19t-14.5 -13q-10 -3 -19 2t-13 15q-45 139 -88 193t-80 40q-60 -23 -104.5 -140t-62.5 -273q-19 -158 3.5 -298t98.5 -207
q57 -49 152 -28.5t206 115.5l72 61q42 48 53 6q7 -21 -113 -119z" />
    <glyph glyph-name="D" unicode="D" horiz-adv-x="575" 
d="M320 982v0q112 -66 194 -208t79 -352q-7 -124 -67.5 -220.5t-149.5 -164t-182 -103.5q-97 -38 -171 -40q-86 -2 -114 46l-1 1q-21 39 17 102q29 46 81 96q-1 161 -1.5 372.5t3.5 395.5q6 98 84 123q47 16 108 3q58 -13 120 -51zM21 -56v0h1q-14 8 -14 23q0 32 -1 101
q-24 -27 -39 -51q-23 -38 -15 -53v-1q13 -20 68 -19zM543 424v0q3 194 -72 324.5t-177 190.5q-55 34 -105 44q-47 10 -81 -1q-46 -15 -50 -77q-4 -170 -3.5 -367t1.5 -357q50 39 111 71v0q133 73 301 73q10 0 17 -7.5t7 -17.5q0 -11 -7.5 -18t-17.5 -7q-154 0 -277 -68v1v-1
q-77 -40 -133 -90v-31v-20q1 -67 1 -99q0 -13 -11 -21q58 7 129 35q85 33 167 94.5t138 149t62 199.5z" />
    <glyph glyph-name="E" unicode="E" horiz-adv-x="635" 
d="M661 249v0q9 -7 10 -16.5t-5 -18.5q-196 -127 -333 -190t-221 7q-81 67 -114 208.5t-23 307.5h-54q-10 0 -17.5 7t-7.5 18q0 10 7.5 17.5t17.5 7.5h58q14 154 59.5 279t117.5 177q59 42 129 16.5t148 -137.5q6 -9 4 -19t-11 -16t-19 -4t-16 10q-62 90 -114 113.5
t-92 -5.5q-62 -45 -102 -158.5t-54 -255.5h286q10 0 17.5 -7.5t7.5 -17.5q0 -11 -7.5 -18t-17.5 -7h-290q-9 -155 19 -286.5t98 -189.5q68 -56 186.5 6t297.5 167q7 9 17 10t18 -5z" />
    <glyph glyph-name="F" unicode="F" horiz-adv-x="302" 
d="M291 1063v0q69 -22 157 -125q6 -9 5.5 -19t-8.5 -17q-9 -6 -19 -5.5t-17 8.5q-78 93 -134 110q-55 17 -92 -30q-43 -56 -68 -165q-25 -108 -34 -239q34 15 70 27q122 43 230 47q11 0 18 -7t8 -18q-1 -10 -8 -17.5t-17 -7.5q-99 -4 -214 -44q-48 -17 -91 -37
q-11 -423 9 -629q1 -10 -5.5 -18t-17.5 -9q-10 -1 -18 5.5t-9 17.5q-19 195 -11 606q-29 -17 -52 -34q-8 -7 -18 -5.5t-17 9.5q-6 8 -5 18t9 17q36 28 86 54q10 152 38 275q27 120 78 186q58 73 147 46z" />
    <glyph glyph-name="G" unicode="G" horiz-adv-x="685" 
d="M680 237v0q10 3 19 -2t12 -15t-2 -19t-15 -12v0q-6 -1 -74 -23t-157 -58q-16 -88 -44.5 -161t-73 -100.5t-107.5 18.5q-63 51 -46.5 100.5t81.5 95t148 81.5q15 101 20 178q-136 -169 -227 -216.5t-142 -6.5q-59 49 -67 173.5t21 268.5q30 144 84 256t120 136
q49 15 95 -30.5t83 -170.5q3 -10 -1.5 -19t-15.5 -12q-10 -3 -19 2t-12 15q-30 99 -59.5 137t-56.5 29q-51 -19 -96 -120t-72 -233t-23.5 -242.5t49.5 -148.5q38 -32 123 28.5t226 248.5q6 9 16 10.5t19 -4.5q11 -9 10 -22q0 -10 -5 -76.5t-18 -157.5q83 33 142.5 52
t64.5 20v0zM268 -95v0q55 -38 89.5 20.5t53.5 160.5q-95 -42 -144.5 -89.5t1.5 -91.5z" />
    <glyph glyph-name="H" unicode="H" horiz-adv-x="599" 
d="M190 553v0q79 -27 155.5 -42t145.5 4q2 211 10 369t10 171v1q0 10 8 17t18 6q11 -1 17.5 -8.5t6.5 -18.5v0q-2 -13 -9.5 -163t-10.5 -353q11 6 20 14q9 6 19 4.5t17 -10.5q6 -9 4.5 -18.5t-10.5 -16.5q-25 -18 -50 -30q-3 -282 29 -459q2 -11 -3.5 -19t-15.5 -11
q-11 -2 -19 3.5t-11 16.5q-32 175 -30 452q-76 -17 -155.5 -1t-160.5 44q-64 21 -128 36v-30l50 -13t21 -5q10 -3 15.5 -11.5t3.5 -18.5q-3 -10 -11.5 -15.5t-19.5 -3.5l-16.5 4.5l-42.5 11.5q-2 -270 29 -440q2 -11 -3.5 -19t-15.5 -11q-11 -2 -19.5 3.5t-10.5 16.5
q-33 180 -30 464q-58 16 -114 36.5t-85.5 40t-5.5 34.5t127 20q40 1 79 -4q4 185 10.5 314.5t7.5 139.5v1q1 10 8.5 17t18.5 6t17.5 -8.5t6.5 -18.5v0q-2 -13 -8.5 -144.5t-10.5 -315.5q71 -16 142 -39zM-3 525v0v25q-38 6 -76 5q-10 -1 -1.5 -5.5t29.5 -11t48 -13.5z" />
    <glyph glyph-name="I" unicode="I" horiz-adv-x="175" 
d="M186 197v0q-78 1 -128 -19q-7 -122 -25 -211q-18 -78 -49 -95q-29 -16 -54 3t-38 63q-22 72 12 163q27 68 105 111q7 158 3 319t-10.5 270.5t-7.5 114.5q-1 11 5.5 18.5t17.5 8.5t18.5 -6t8.5 -17q1 -5 7 -110.5t10.5 -262t-1.5 -315.5q53 16 127 15q11 -1 18 -8t7 -18
q-1 -11 -8 -17.5t-18 -6.5zM-16 -23v0q15 74 22 173q-39 -30 -56 -69q-27 -72 -9 -130q5 -17 9.5 -27t7.5 -9q13 6 26 62z" />
    <glyph glyph-name="J" unicode="J" horiz-adv-x="516" 
d="M242 -143v0h-1q-46 -6 -92 13q-45 19 -81 71q-48 67 -69 206q-1 11 5.5 19t16.5 10q11 1 19 -5t9 -17q19 -127 61 -185q28 -39 60 -53q31 -13 64 -9h1q41 7 78 32q66 52 93 205q32 192 6 548q-20 209 -77 301q-14 22 -28 25v0h-3q-8 0 -16 -9q-11 -13 -15 -34
q-2 -9 -2 -19t-7.5 -17.5t-17.5 -7.5t-17.5 7.5t-7.5 17.5q0 14 2 28q7 34 26 57q23 28 55 28q5 0 12 -2h1q34 -7 60 -46q64 -103 85 -324q27 -363 -7 -562q-29 -172 -113 -237q-47 -32 -100 -41z" />
    <glyph glyph-name="K" unicode="K" horiz-adv-x="613" 
d="M15 456v0q-58 -31 -83 -5q-14 16 -6 45q13 46 46 80q27 26 66 35q-7 272 -49 404q-4 11 0.5 20t14.5 12q10 4 19 -0.5t13 -14.5q45 -140 52 -420q21 -2 44 -11q120 99 222.5 215.5t105.5 185.5q0 11 6.5 18.5t17.5 8.5q10 0 17.5 -6.5t8.5 -17.5q-2 -78 -104 -200.5
t-225 -227.5q19 -12 40 -29q73 -55 164.5 -176.5t277.5 -480.5q5 -9 2 -19t-12 -15q-10 -5 -19.5 -2t-14.5 12q-183 354 -271.5 471.5t-157.5 170.5q-27 21 -51 33l-21 -16q-15 -12 -29 -22q-2 -261 -63 -588q-2 -10 -10.5 -15.5t-18.5 -4.5q-11 3 -16.5 11t-3.5 19
q57 306 61 543zM7 540v0q-20 -21 -30 -51q4 6 14 12q21 11 48 29q0 15 -1 29q-18 -6 -31 -19zM-29 483v0q0 1 -1 1l-0.5 0.5t0.5 -0.5q0 -1 1 -1z" />
    <glyph glyph-name="L" unicode="L" horiz-adv-x="733" 
d="M244 84v0q87 -73 157 -105q105 -46 174 -25q68 21 110 74q35 43 55 88q4 9 13.5 12.5t19.5 -0.5q10 -5 13.5 -14.5t-1.5 -19.5q-22 -50 -62 -99q-50 -64 -136 -90q-85 -25 -207 29q-76 34 -169 111l-24 20q-7 -51 -16 -99q-13 -65 -34.5 -90t-45.5 -19q-25 6 -44 39
t-27 78q-8 43 -4 84.5t26 68.5q32 43 104 19q14 175 7 455q3 130 10.5 242.5t29.5 195.5q3 10 12 15t19 2t15 -12t3 -19q-22 -78 -29 -188t-10 -237q8 -292 -9 -479q23 -15 50 -37zM121 -24v0q12 58 19 119q-45 20 -60 0q-13 -18 -15 -48.5t4 -63.5q6 -31 14.5 -52.5
t17.5 -24.5q5 -4 20 70z" />
    <glyph glyph-name="M" unicode="M" horiz-adv-x="1324" 
d="M1363 251v0q9 -6 11 -16t-4 -19q-130 -192 -228 -248q-68 -38 -123 -16q-53 22 -87 100l-1 2q-66 149 -66 530q0 137 -6.5 183t-12.5 46q-12 0 -34 -59t-50 -158l-54 -192q-23 -86 -39 -139q-38 -128 -81 -194q-23 -34 -52 -32q-29 3 -45 50q-26 72 -19 381
q5 245 -34 311q-12 20 -22 18q-18 -5 -45 -44q-47 -69 -94 -221.5t-82 -379.5q-36 -232 -63 -286q-52 -103 -87 14q-17 59 -29 185q-15 166 -23 373.5t-10.5 375t-1.5 210.5q1 11 8 18t18 7q11 -1 20.5 -9.5t10.5 -19.5q-1 -43 1 -208.5t11.5 -370.5l17 -354t35.5 -155
q11 26 42 228q36 232 85 390t99 231q38 56 76 65q47 11 77 -43q45 -76 41 -336q-7 -301 16 -365q3 -9 2 -13v-1.5t1 -0.5l1 2q1 3 4 9q37 59 74 180l39 138q27 101 59.5 208t66.5 183t65 76q29 0 46.5 -68.5t17.5 -232.5q0 -371 63 -510v-2q26 -59 60 -73q33 -13 79 13
q88 50 211 232q6 9 16 11t19 -4z" />
    <glyph glyph-name="N" unicode="N" horiz-adv-x="623" 
d="M589 444v0q4 -201 -1.5 -320.5t-40.5 -135.5t-94.5 92t-156.5 361q-143 371 -228 519q-9 16 -17 26v-30q5 -125 4.5 -345t-2.5 -558q-2 -152 -2 -190q0 -11 -7 -18t-17 -8q-11 0 -18 7t-8 18q0 39 1 192q3 336 3.5 555.5t-4.5 344.5q-2 54 8 75q21 44 60 12v0v0
q19 -15 42 -55q88 -152 232 -527q171 -446 186 -424q11 7 12 115t-2 294q-5 204 -3 471q1 11 8 18t18 7q10 -1 17 -8t8 -18q-2 -265 2 -470z" />
    <glyph glyph-name="O" unicode="O" horiz-adv-x="748" 
d="M785 205q-132 -50 -235 -30q-26 -86 -55 -132q-54 -85 -121 -112q-76 -31 -153 0q-73 29 -135 103q-109 130 -137 339q-13 129 18 260.5t93 225.5q46 69 105 99q63 32 132 3q35 -16 71 -54q49 12 88 3q83 -23 118 -115q33 -85 35 -202q0 -192 -46 -369q96 -16 209 32
q23 -1 27.5 -22t-14.5 -29zM453 70v0q25 40 48 116q-67 21 -121 62q-83 63 -133 154q-50 90 -63 186q-14 99 16.5 179.5t109.5 118.5l5 3q-20 17 -39 26q-46 20 -89 -2q-46 -24 -85 -83q-58 -86 -86.5 -208.5t-16.5 -243.5q26 -193 126 -311q53 -64 115 -89q58 -24 114 -1
q53 22 99 93zM410 288v0q47 -35 105 -53q44 169 43 357q-1 108 -30 184q-27 69 -84 85q-18 4 -40 2q40 -56 78 -145q4 -10 0 -19t-14 -14q-10 -3 -19 0.5t-14 13.5q-41 98 -83 150q-10 -3 -21 -8q-62 -30 -85.5 -96.5t-12.5 -149.5q12 -87 58 -169q45 -82 119 -138z" />
    <glyph glyph-name="P" unicode="P" horiz-adv-x="386" 
d="M37 413v0q-41 -6 -58 14q-19 21 -8 53q8 22 31 47v0v0q14 15 33 29l-1 27q-3 219 -3.5 387.5t0.5 202.5q0 10 7 17t18 7t18 -7.5t7 -17.5q-1 -34 -0.5 -201.5t4.5 -384.5q16 9 34 16l20 352q6 110 46.5 156.5t98.5 42.5v0q81 -8 153 -87q71 -78 94 -191
q16 -80 -12 -162.5t-114 -154t-247 -117.5q-15 -420 -29 -519q-7 -49 -14 -67q-31 -90 -57 -1v1q-7 21 -10 87q-5 125 -11 471v0zM167 565v0q-3 -36 -5 -71q203 66 272 168t47 205q-20 98 -81 165q-59 65 -119 71v0q-36 2 -61.5 -33.5t-30.5 -117.5q-10 -186 -19 -334
q67 19 156 17q11 -1 17.5 -8t6.5 -18t-7.5 -17.5t-18.5 -6.5q-92 1 -157 -20zM94 65v0q7 74 13 363q-10 -3 -19 -5q3 -276 6 -358zM115 546v0q-16 -8 -30 -16l1 -55q13 2 24 5q3 32 5 66zM19 463v0q-1 -1 -1.5 -1h-1.5v0v-1l12 2l8 1v26q-13 -15 -17 -27z" />
    <glyph glyph-name="Q" unicode="Q" horiz-adv-x="704" 
d="M734 247v0q10 -4 14 -11.5t0 -17.5q-68 -178 -147.5 -253.5t-149.5 -56t-133 120.5q-44 -30 -88 -28q-63 4 -117 58q-51 51 -90 132q-71 147 -88.5 327.5t47.5 312.5q48 87 95.5 122t91.5 33q12 12 27 19q90 43 153 29v0q85 -22 122 -116q35 -88 38 -210
q3 -174 -33.5 -345t-84.5 -251q-18 -28 -36 -49q103 -146 217 -57q68 74 138 225q4 10 9 15t15 1zM231 51v0q27 -1 54 17l-8 12q-99 148 -149 360q-32 137 -34.5 263.5t29.5 212.5q-48 -22 -96 -109q-60 -120 -43 -288t84 -306q36 -74 80 -118q41 -41 83 -44zM323 103v0
q13 15 25 35q46 76 79.5 239t31.5 330q-3 113 -34 191q-28 71 -87 86v0v0q-40 10 -101 -15q40 -22 71 -53.5t48.5 -57t18.5 -27.5v0q5 -10 2.5 -19.5t-11.5 -15.5q-9 -5 -18.5 -2.5t-15.5 11.5q0 1 -11.5 17.5t-32 39.5t-47.5 41.5t-59 22.5q-41 -67 -40 -196.5t35 -277.5
q48 -204 141 -343z" />
    <glyph glyph-name="R" unicode="R" horiz-adv-x="646" 
d="M187 960v0q8 119 54.5 169t109.5 46q77 -6 142 -70q65 -63 84 -157q19 -88 -32.5 -180t-202.5 -166q48 -34 88 -84q69 -89 114 -200.5t63 -212.5q2 -10 -3.5 -18.5t-16.5 -10.5q-10 -2 -18.5 4t-10.5 16q-17 96 -59.5 201.5t-108.5 189.5q-47 60 -105 91q-33 -12 -71 -24
q-21 -320 -38 -440q-7 -49 -14 -67q-31 -90 -57 -1v1q-7 21 -10 87q-7 169 -11 388q-13 -2 -27 -5q-65 -10 -99 6q-23 11 -25 34q-1 20 22 38q26 21 128 43q-3 204 -3.5 356.5t-0.5 184.5q1 10 8 17t18 7t18 -7.5t7 -17.5q-1 -31 -0.5 -180.5t3.5 -350.5q10 2 22 4q8 1 15 2
q9 137 17 307zM48 567v0l36 6l-1 14q-56 -12 -81 -24q19 -1 46 4zM141 256v0q10 112 22 284q-14 -3 -29 -7q3 -146 7 -277zM167 593v0v9l-5 -1q-15 -2 -29 -5l1 -6v-5zM458 1069v0q-52 51 -109 55q-43 3 -74 -36t-37 -130l-17 -306q34 -5 66 -19q152 65 204.5 147t36.5 159
q-16 78 -70 130z" />
    <glyph glyph-name="S" unicode="S" horiz-adv-x="383" 
d="M488 979v0q54 -42 62 -116q0 -11 -6.5 -18.5t-16.5 -8.5q-11 -1 -18.5 5.5t-9.5 17.5q-5 51 -42 80q-46 35 -119 38q-76 3 -161 -30q-79 -31 -149 -95t-114 -162q-34 -85 2 -159.5t107.5 -138t145.5 -116.5l26 -20q76 52 182 116q9 5 18.5 2.5t15.5 -11.5q5 -9 2.5 -18.5
t-11.5 -15.5l-166 -105q72 -53 88 -101q10 -34 -15 -60.5t-93 -45.5q-133 -36 -188 -25q-44 8 -48 44q-4 28 27 66q38 47 144 124l-12 9q-81 58 -159.5 129t-116 157t4.5 189q48 108 125.5 179t164.5 105q95 37 182 33q89 -3 148 -48zM193 194v0q-111 -78 -147 -124
q-17 -21 -16 -28q0 -1 1 -1q2 1 7 0q44 -8 164 24q83 23 73 45q-12 33 -82 84z" />
    <glyph glyph-name="T" unicode="T" horiz-adv-x="340" 
d="M161 715v0q51 -122 58 -294t-8 -295q-9 -73 -21 -101q-41 -97 -67 19q-14 59 -10 332l-4 643q-139 -39 -226 -92.5t-128 -95t-40 -44.5q-7 -8 -17 -9.5t-19 4.5q-8 7 -9.5 17t4.5 18q0 3 45 49t141.5 105t248.5 99v31q0 11 7 18t18 7t18 -7t7 -18v-19q207 47 519 0
q11 -2 16.5 -10.5t4.5 -18.5q-2 -11 -10.5 -17t-18.5 -4q-155 25 -282.5 23t-227.5 -24zM164 160v0q16 152 -2 340l1 -124v-1v0q-2 -137 1 -215z" />
    <glyph glyph-name="U" unicode="U" horiz-adv-x="937" 
d="M76 47v0q-45 53 -71.5 176t-26.5 324l-1 506q0 11 7.5 18.5t17.5 7.5t17.5 -7.5t7.5 -18.5l1 -506q1 -191 24 -306t63 -162q35 -42 78 -29q51 14 107 85q98 123 175 362t97 551q1 11 8.5 17.5t17.5 6.5q11 -1 17.5 -8.5t6.5 -17.5v-1q-1 -16 -4 -130.5t0 -271.5
t19.5 -302t49.5 -256.5t101.5 -33.5t147.5 197q4 10 13.5 13.5t19.5 -0.5q9 -4 13 -13.5t0 -19.5q-112 -192 -196.5 -253.5t-131 35t-65.5 274.5t-22 364q-89 -370 -227 -544q-67 -84 -133 -103q-74 -21 -131 46z" />
    <glyph glyph-name="V" unicode="V" horiz-adv-x="509" 
d="M167 8v0q-59 -25 -100 82q-80 225 -124.5 450t-62 377t-17.5 159q0 11 6.5 18.5t16.5 8.5q11 1 18.5 -5.5t9.5 -17.5q-1 -7 16.5 -157t61.5 -372t122 -443q22 -60 36 -53q37 18 77 128t75 261q-41 60 -48 162q-10 124 65 330q49 123 86 106q28 -19 17.5 -168.5
t-50.5 -343.5l-16 -76q42 -50 90.5 -82t77.5 -44q11 1 18.5 -6t8.5 -17q0 -11 -6.5 -18.5t-17.5 -8.5q-38 11 -90.5 44.5t-95.5 72.5q-37 -150 -82 -258t-92 -129zM366 918v0q-71 -195 -62 -309q3 -49 15 -86l4 17q36 177 55.5 310t8.5 144q-2 1 -3 -10q-1 -19 -18 -66z" />
    <glyph glyph-name="W" unicode="W" horiz-adv-x="856" 
d="M869 244v0q10 -3 15.5 -11.5t2.5 -18.5q-2 -11 -10.5 -16t-19.5 -3q-85 74 -122 125.5t-64 99.5q-31 -242 -80.5 -347t-105.5 -96q-48 8 -92 76.5t-78 170.5q-46 -92 -114 -176q-83 -98 -126 -29t-57.5 232.5t-11.5 347.5t10.5 316.5t8.5 139.5q1 10 8.5 17t18.5 6
t17.5 -8.5t5.5 -18.5q0 -6 -7.5 -123.5t-13 -283.5t0 -318.5t30 -229.5t77.5 -17q83 104 130 216q-30 109 -46.5 213.5t-12.5 173.5q5 93 61 93v0q34 -2 58 -22q35 -29 49 -85q13 -52 8 -121q-8 -116 -63 -255l2 -7q32 -105 69 -178t74 -80t73 101t65 372l1 7
q-58 134 -57 278q1 149 30 228q26 71 51.5 75.5t42.5 -79.5q24 -87 -15 -492q71 -161 187 -273zM283 679v0q-5 -117 40 -303q30 94 36 174q4 61 -7 106q-10 40 -32 58q-12 10 -29 11v0v0q-5 -2 -8 -46zM642 627v0q23 288 7 366q-25 -73 -26 -207q1 -79 19 -159z" />
    <glyph glyph-name="X" unicode="X" horiz-adv-x="812" 
d="M852 264v0q9 -6 11 -16t-3 -19l-155 -134q-121 -90 -170 -94q-88 -12 -134 47t-78 200.5t-38 226.5q-125 -293 -196 -405q-40 -64 -66 -74q-54 -21 -50 62q4 91 103 391q39 118 57.5 199.5t21 132.5t-6.5 77.5t-25 35.5t-35 5.5t-36 -12t-28 -16.5t-12 -8q-8 -7 -18 -5.5
t-17 9.5q-7 9 -5.5 18.5t9.5 16.5q1 2 22 16.5t53 30t65 19.5t57.5 -16.5t32 -77.5t-12 -164.5t-75.5 -276.5q-91 -280 -99 -369q10 13 22 33q78 122 221 466q-35 212 14 472q45 199 106 244q35 28 68 15q29 -13 43 -56v0v0q16 -46 7.5 -131t-50.5 -202q-72 -194 -136 -348
q12 -120 45.5 -271t72.5 -199t92 -36q54 11 133.5 72.5t121.5 100.5q39 41 49 43t19 -3zM5 43v0q2 1 4 3l-2 -2q-4 -1 -5 -1.5t3 0.5zM307 660v0l100 263q40 108 48.5 184t-4.5 115v0q-7 22 -16 25q-5 2 -16 -7q-48 -35 -89 -215q-38 -195 -23 -365z" />
    <glyph glyph-name="Y" unicode="Y" 
d="M519 248v0q11 0 17.5 -8t6.5 -18q-1 -11 -8.5 -17.5t-18.5 -6.5q-56 3 -136 -17q-18 -168 -69 -261t-149 -42q-80 47 -97 96q-19 54 16 101q30 43 88 77q77 45 172 71q15 285 -1 528q-24 -95 -69 -217.5t-115 -251.5q-67 -116 -118 -82q-42 31 -56.5 154.5t-14 250.5
t2.5 170v8q1 10 8.5 17t17.5 7q11 -1 18 -8t7 -18l-1 -8v0q-2 -40 -3.5 -159.5t7.5 -233t39 -136.5q9 -9 49 62q85 158 132 301t66 234.5t19 95.5q1 10 9.5 16t18.5 5q9 -2 15 -8t7 -15t8 -118t9 -267.5t-11 -315.5q78 17 134 14zM187 -78v0q65 -34 100.5 39t48.5 208
q-77 -23 -141 -61q-49 -28 -73 -61q-19 -27 -10 -55q12 -33 75 -70z" />
    <glyph glyph-name="Z" unicode="Z" horiz-adv-x="591" 
d="M629 213v0q-1 -11 -9 -17.5t-19 -5.5q-12 2 -59.5 4.5t-115.5 0.5q-24 -82 -91.5 -154.5t-150.5 -119.5q-67 -39 -127 -51q-66 -14 -107 14q-47 31 -34 118q15 77 72 125.5t139 74.5q126 38 256 42q0 10 -1 21q-9 64 -43 99t-80 48t-90 13.5t-73.5 -3.5t-31.5 -5
q-11 -2 -21 5q-8 7 -9 17t6 18v1q7 8 64 79.5l123 159t102 145.5l1.5 1.5t1 0.5t0.5 -1h1v1h-1.5h-1.5q-4 -2 -12 -3v0v0q-30 0 -77 -10q-110 -24 -226.5 -68t-148.5 -73q-8 -8 -18 -8t-18 7t-8 17t7 18q37 34 161.5 82.5t239.5 73.5q53 12 88 11h1l24 -25q0 11 -7 18t-17 7
q49 0 61 -31q7 -19 -7 -44q-43 -68 -121 -170l-134 -171q53 5 121.5 -6t123.5 -56t69 -142q1 -13 1 -25q68 1 114.5 -1.5t58.5 -4.5q11 -1 17.5 -9t5.5 -18zM159 -35v0q72 40 131.5 100.5t82.5 127.5q-118 -5 -231 -39q-68 -22 -116 -61t-60 -100q-9 -54 13 -68
q23 -15 68 -6q52 11 112 46z" />
    <glyph glyph-name="bracketleft" unicode="[" horiz-adv-x="410" 
d="M293 51v0q11 0 18.5 -7t7.5 -18q0 -10 -7.5 -17.5t-18.5 -7.5h-189q-10 0 -17.5 7.5t-7.5 17.5v838q0 11 7.5 18t17.5 7h172q10 0 17.5 -7t7.5 -18q0 -10 -7.5 -17.5t-17.5 -7.5h-147v-788h164z" />
    <glyph glyph-name="backslash" unicode="\" horiz-adv-x="569" 
d="M149 720v0l351 -687q5 -10 2 -19.5t-12 -14.5q-10 -5 -19.5 -2t-14.5 13l-351 687q-5 10 -2 19.5t13 14.5q9 5 18.5 1.5t14.5 -12.5z" />
    <glyph glyph-name="bracketright" unicode="]" horiz-adv-x="449" 
d="M322 887v0q11 0 18 -7t7 -18v-838q0 -10 -7 -17.5t-18 -7.5h-189q-11 0 -18 7.5t-7 17.5q0 11 7 18t18 7h164v788h-146q-11 0 -18.5 7.5t-7.5 17.5q0 11 7.5 18t18.5 7h171z" />
    <glyph glyph-name="asciicircum" unicode="^" horiz-adv-x="731" 
d="M399 1269v0l144 -210q6 -9 4 -19t-11 -16t-19 -4t-16 11l-123 179l-124 -186q-6 -9 -16 -11t-19 4q-8 6 -10 16t4 19l143 216q3 4 8 8q9 5 18.5 3.5t16.5 -10.5z" />
    <glyph glyph-name="underscore" unicode="_" horiz-adv-x="1024" 
d="M0 -100h1024v-60h-1024v60z" />
    <glyph glyph-name="grave" unicode="`" horiz-adv-x="513" 
d="M321 1307v0q1 -10 -6 -18t-17 -8q-11 -1 -18.5 5.5t-8.5 17.5q-2 15 -10 30.5t-19 28.5t-18.5 21t-8.5 9q-8 7 -8 17t7 18t17 8.5t18 -7.5q1 0 11 -10.5t23.5 -28t24.5 -39t13 -44.5z" />
    <glyph glyph-name="a" unicode="a" horiz-adv-x="684" 
d="M164 21v0q-57 -77 -99 -78q-37 -2 -57 33q-16 26 -21 68q-8 72 10.5 158.5t61.5 141.5q66 73 131 76.5t104 -14.5q18 77 17 80q2 10 10 16t19 5q9 -2 15 -8.5t6 -16.5v0v-349q0 -33 9 -69t28 -64q16 -25 40 -33q23 -7 58 12q73 36 185 236q5 9 14.5 12t19.5 -2
q9 -6 12 -15.5t-2 -18.5q-120 -214 -204 -256q-55 -30 -97 -16q-42 13 -68 53q-23 34 -34 78t-11 83v163q-43 -124 -147 -275zM61 -7v0q20 0 62 57q61 86 98.5 165.5t57.5 142.5q-27 14 -78 12.5t-103 -59.5q-37 -46 -52.5 -121.5t-8.5 -139.5q4 -31 14 -48q5 -9 10 -9z" />
    <glyph glyph-name="b" unicode="b" horiz-adv-x="533" 
d="M254 -159v0q-27 -47 -58.5 -57t-67.5 27q-60 55 -116 340q-51 270 -54 507q-3 235 44 432q48 190 129 276q46 51 95 66q52 16 99 -10q39 -22 67 -74q62 -120 57 -259.5t-52.5 -280t-111.5 -262.5q45 -118 45 -281q94 -35 226 -30q11 0 18.5 -6.5t7.5 -17.5q1 -11 -6 -18
t-17 -8q-132 -5 -229 27q-3 -83 -15 -160q-20 -136 -61 -211zM255 489v0q-40 -73 -77 -130q42 -41 103 -72q-2 114 -26 202zM144 397v0q42 67 87 152q-20 38 -49 55q-55 29 -80 13q-23 -16 -23 -62q1 -54 38 -119q12 -20 27 -39zM8 658v0q3 -191 37 -406q20 26 70 101
q-24 28 -41 57q-44 78 -45 144q-1 74 47 106q48 31 131 -12q29 -17 50 -48q58 114 98.5 241.5t43.5 252t-51 231.5q-21 38 -48 53t-60 6q-35 -11 -72 -51q-72 -78 -117 -255q-45 -192 -43 -420zM54 201v0l8 -41q52 -269 102 -315q23 -21 46 21q36 66 56 194q12 82 15 171
q-78 35 -130 85q-68 -101 -73 -105q-10 -11 -24 -10z" />
    <glyph glyph-name="c" unicode="c" horiz-adv-x="642" 
d="M91 -123v0q-65 58 -85.5 171.5t-5.5 238.5q14 127 55 223t98 118q46 16 92 -29.5t87 -170.5q3 -10 -1.5 -19t-14.5 -13q-11 -3 -20 2t-12 15q-33 99 -62 137.5t-53 29.5q-43 -16 -74.5 -101t-44.5 -198q-13 -114 3 -215.5t70 -149.5q59 -55 185 13t334 317q7 9 17 9.5
t18 -5.5q8 -7 9 -17t-5 -19q-226 -270 -370 -338t-220 1z" />
    <glyph glyph-name="d" unicode="d" horiz-adv-x="849" 
d="M27 -63v0q-23 50 -28 105q-11 108 13 253t90 232q53 62 114 59t120 -47q-30 252 -29 506q-2 139 30 273q11 44 37.5 83.5t76.5 44.5q11 0 22 -2q14 -2 25 -10h1q28 -24 37.5 -70t10.5 -82q3 -132 -15 -264q-36 -281 -115 -554q43 -47 78 -100q5 -9 3 -18.5t-11 -15.5
q-8 -6 -18 -4t-15 11q-25 36 -53 71q4 -31 9 -62q9 -75 34.5 -155t73.5 -139q34 -42 86 -55q50 -7 93 21q53 34 92 91t64 113q5 10 14 13t19 -1q9 -4 12.5 -13.5t-0.5 -18.5q-29 -64 -72.5 -126t-102.5 -100t-128 -27q-69 16 -114 71q-48 57 -75 132t-39 149
q-27 -82 -64 -166.5t-86 -152.5q-20 -30 -51 -59.5t-67 -33.5q-50 2 -72 48zM356 1045v0q0 -256 30 -510q65 242 97 490q18 127 15 255q-1 14 -3.5 37.5t-8 45.5t-16.5 31v0v0v0v0v0q-1 1 -2 1h-2v0q-1 1 -2 1q-5 1 -11 1q-30 -4 -46 -35t-23 -57q-30 -128 -28 -260z
M140 496v0q-59 -79 -80.5 -214.5t-11.5 -234.5q4 -45 22 -87q4 -7 10.5 -14.5t15.5 -7.5q22 4 45.5 29t35.5 43q59 85 102 194t72 209q-3 28 -7 56q-45 45 -99.5 63t-104.5 -36z" />
    <glyph glyph-name="e" unicode="e" horiz-adv-x="489" 
d="M122 -130v0q-61 39 -90 137.5t-31 212.5v9v3v2q0 112 22.5 197.5t64.5 104.5q32 13 68 -21.5t72 -129.5q25 -72 -6.5 -109.5t-83 -52t-87.5 -15.5q3 -100 26.5 -182t69.5 -112q48 -32 131 37.5t208 282.5q5 9 15 11.5t19 -2.5q9 -6 11.5 -15.5t-2.5 -18.5
q-139 -237 -240 -309t-167 -30zM105 488v0q-24 -11 -38.5 -75.5t-15.5 -154.5q28 2 64 11t58 32.5t8 65.5q-53 136 -76 121z" />
    <glyph glyph-name="f" unicode="f" horiz-adv-x="407" 
d="M-97 337v0q-31 31 -40 59q-11 35 7 61q24 32 87 30q31 -2 59 -14q7 383 14.5 659.5t8.5 304.5v1q1 10 8 17t18 7t17.5 -7.5t6.5 -18.5q0 -17 -8.5 -310t-17.5 -683q56 -50 86 -173q108 -30 271 -39q11 -1 18 -8.5t6 -17.5q0 -11 -7.5 -18t-18.5 -6q-151 8 -259 35
q43 -238 -39 -810q-39 -262 -62.5 -278.5t-41.5 142.5t-12.5 426t9.5 569q-74 35 -110 72zM61 364v0l-2 -64l33 -12q-13 46 -31 76zM58 247v0q-5 -274 -7.5 -495.5t2 -322.5t17.5 -15q85 589 36 816v1q-25 7 -48 16zM-89 427v0q-4 -5 0 -16q5 -16 27 -38q26 -26 76 -53l2 95
q-29 20 -62 21q-35 2 -43 -9z" />
    <glyph glyph-name="g" unicode="g" horiz-adv-x="577" 
d="M586 196v0q-123 -26 -222 -111q3 -162 -11.5 -322t-65 -278.5t-152.5 -156.5q-67 -21 -102 24q-33 42 -31 124q3 77 32 175q35 118 106 240t173 216q-2 97 -5 181l-1 37q-40 -79 -147 -230h-1q-69 -91 -117 -52q-31 25 -40.5 94t2.5 157q12 84 43.5 162.5t83.5 125.5
q58 53 138 37.5t180 -130.5q7 -8 6.5 -18t-8.5 -17q-9 -7 -19 -6t-17 9q-82 93 -143.5 109t-103.5 -22q-45 -40 -72.5 -110.5t-37.5 -146.5q-11 -75 -6.5 -131t23.5 -72q10 -9 48 41v0v0q66 93 104 154.5t55.5 98t22 53t3.5 18.5v1h51v-1q0 -68 3 -157q0 -1 1 -2v-3
q2 -66 4 -139q96 73 214 97q11 2 19 -3.5t10 -16.5q2 -10 -3.5 -18.5t-16.5 -10.5zM119 -624v0q83 31 125.5 132.5t57 242t12.5 288.5q-84 -87 -142.5 -193.5t-89.5 -208.5q-27 -92 -29 -162q-2 -64 19 -91q14 -18 47 -8z" />
    <glyph glyph-name="h" unicode="h" horiz-adv-x="816" 
d="M-3 254v0v4q-1 100 0 207q0 193 7.5 374t30.5 324q24 154 75.5 233.5t139.5 53.5q13 -4 23 -10q54 -28 75 -91t16 -150q-11 -169 -80 -381q-113 -333 -237 -568q4 -220 9 -353q40 96 97.5 222.5l108.5 241t97.5 129.5t64.5 -68l9 -115q6 -99 16.5 -155.5t43.5 -110.5
q9 -13 21 -20q24 -12 58 -5q39 7 82 33q98 57 167 180q5 10 14.5 13t19.5 -2q9 -5 12 -14.5t-2 -19.5q-76 -136 -185 -201q-51 -30 -99 -39q-51 -9 -90 10q-25 13 -41 40q-38 61 -49.5 121.5t-17.5 165.5q-4 47 -8 89q-11 40 -40.5 -3t-75.5 -143.5l-91.5 -209l-76 -184.5
t-32.5 -80v0q-6 -15 -22 -16q-10 0 -17.5 6.5t-8.5 17.5v0q-1 15 -6 145.5t-8 328.5zM47 465v0v-103q103 212 189 472q67 206 78 367q4 73 -11 123.5t-53 71.5q-7 3 -15 6q-58 17 -94.5 -51.5t-56.5 -196.5q-21 -139 -28.5 -318.5t-8.5 -370.5z" />
    <glyph glyph-name="i" unicode="i" horiz-adv-x="353" 
d="M58 36v0q0 -21 6.5 -55t22.5 -62q11 -20 26 -24q15 -5 42 15q35 27 83.5 105t112.5 223q5 10 14 13.5t19 -0.5q10 -5 13.5 -14t-0.5 -19q-66 -151 -118.5 -234t-92.5 -113q-48 -36 -85 -25q-37 10 -57 47q-20 35 -28.5 76.5t-8.5 66.5v353q0 11 7.5 18t17.5 7
q11 0 18.5 -7t7.5 -18v-353zM40 490v0q-21 0 -36 15t-15 36q0 20 15 35t36 15q20 0 35 -15t15 -35q0 -21 -15 -36t-35 -15z" />
    <glyph glyph-name="j" unicode="j" horiz-adv-x="251" 
d="M54 5v0q1 -22 -4 -134.5t-28.5 -257.5t-76.5 -264t-149 -153q-66 -18 -100 33l-1 2q-33 52 -28 152q5 98 45 221q39 125 112.5 250t179.5 223v221q-1 73 -1 124.5t46 30.5q7 -34 5 -155v-179q135 98 208 123q23 -1 33 -12t-2 -30q-44 -12 -81.5 -33.5t-157.5 -111.5v-48
v-2zM-218 -755v0q82 29 128 140t66 248t24.5 243.5t3.5 127.5v3v1q-87 -91 -148.5 -200.5t-95.5 -218.5q-38 -117 -43 -208q-4 -85 19 -122l1 -1q15 -22 45 -13zM15 572v0q-20 0 -35 15t-15 36t15 35.5t35 14.5q21 0 36 -14.5t15 -35.5t-15 -36t-36 -15z" />
    <glyph glyph-name="k" unicode="k" horiz-adv-x="700" 
d="M524 -185v0q-41 -32 -81 -30t-78 50q-69 93 -108 176t-60 144q-37 -117 -60.5 -229t-34.5 -186t-11 -77q-1 -9 -7.5 -15.5t-15.5 -7.5q-11 0 -18.5 6.5t-8.5 17.5q-44 526 -46.5 847.5t25.5 481.5q32 178 90.5 224t133.5 10q52 -27 50.5 -131t-36 -245t-80.5 -279.5
t-82.5 -234t-42.5 -108.5q8 -161 22 -356q30 159 91 337q-12 0 -24 1q-10 1 -16.5 9t-5.5 19q1 10 9 16.5t19 5.5t22 0q3 2 7 4q6 3 12 3q45 113 107 188.5t142 83.5q81 5 106 -24q28 -31 6 -74q-16 -33 -54 -70q-51 -49 -124 -91.5t-145 -61.5q7 -17 14 -39
q21 -59 58.5 -140.5t105.5 -173.5q43 -50 88 -11q70 60 127.5 178.5t81.5 183.5l3 7q4 9 13.5 13t19.5 1q9 -5 13 -14t1 -19l-3 -7q-25 -68 -86.5 -192t-138.5 -191zM441 490v0q-61 -6 -111 -65t-88 -150q59 20 118 56.5t101 76.5q32 31 44 55q6 14 3 19q-10 12 -67 8z
M70 985v0q-35 -191 -22 -631q36 92 81 222t81 261.5t44.5 227t-31.5 116.5q-48 24 -88 -15.5t-65 -180.5z" />
    <glyph glyph-name="l" unicode="l" horiz-adv-x="442" 
d="M209 -358v0q-45 -14 -84.5 29t-71.5 157q-37 139 -51 360l-3 41q-23 474 35 875q22 141 54 224q38 98 99 92q28 -4 54 -34q41 -41 67 -210.5t-11 -401.5q-24 -139 -83 -282.5t-164 -279.5q13 -228 51 -371q25 -88 48.5 -123t45.5 -27q42 14 86 96t85.5 193t75.5 212l3 7
q3 10 12.5 14.5t19.5 1.5q10 -4 14.5 -13t0.5 -19l-2 -7q-36 -107 -80.5 -223.5t-95.5 -204.5t-105 -106zM84 1096v0q-53 -365 -38 -805q83 120 131.5 245.5t69.5 245.5q36 221 15.5 377.5t-55.5 189.5q-3 2 -4 4q-14 16 -23 17q-21 1 -45 -61q-31 -78 -51 -213z" />
    <glyph glyph-name="m" unicode="m" horiz-adv-x="832" 
d="M5 268v0q-5 115 -7 229v21q-1 54 0 107q0 11 7.5 18t17.5 7q11 -1 18 -8t7 -18q-1 -52 1 -105v-22q2 -113 6 -226q4 -115 14 -228v-5q3 -28 8 -61q6 28 11 57t8 52q1 7 2 12q12 86 40 198t74 186q9 14 22.5 26.5t29.5 17.5q40 5 58 -31q20 -41 24 -103.5t2 -107.5v-10
q-2 -41 -1.5 -97t7.5 -98q11 22 20 47.5t15 45.5l20 70l4 14q11 43 24 85q19 70 45 137v1q7 19 21.5 44.5t35.5 25.5q20 0 28.5 -18.5t11.5 -34.5q6 -34 7.5 -71t1.5 -71q0 -65 7 -161.5t34 -161.5q4 -10 11.5 -21t17.5 -15q9 -2 18.5 2.5t16.5 9.5q42 36 79.5 102t60.5 116
q5 10 14.5 13.5t18.5 -0.5q10 -5 13.5 -14.5t-0.5 -19.5q-26 -57 -66.5 -126.5t-88.5 -110.5q-37 -31 -82 -20q-42 19 -59 63q-30 71 -37.5 171.5t-7.5 172.5q0 8 -0.5 30.5t-1 48.5t-2.5 46q-18 -45 -39 -117t-31 -110q-2 -6 -3 -10l-4 -14q-9 -36 -20 -71
q-8 -28 -21 -62.5t-29 -59.5q-8 -10 -18 -17t-24 -6q-14 2 -22.5 13t-12.5 24q-12 45 -13 111.5t0 116.5q1 4 1 8q1 37 -1.5 94.5t-18.5 90.5l-1 1q0 1 -0.5 2l-1 2l-0.5 1q-3 -1 -7.5 -5t-8 -9l-5.5 -8q-43 -69 -69 -176.5t-37 -186.5q-1 -5 -2 -11q-5 -38 -14 -86.5
t-23 -80.5q-19 -38 -39.5 -32.5t-32.5 42.5q-14 55 -18 112v3q-11 115 -14 230z" />
    <glyph glyph-name="n" unicode="n" horiz-adv-x="579" 
d="M605 241v0q10 -4 14.5 -13t0.5 -19q-64 -181 -121 -233q-36 -33 -70 -31q-34 1 -61 30l-1 2q-40 47 -61 143q-9 48 -20 119q-8 56 -17 111t-18 92t-18 40q-9 4 -30 -66t-56 -244q-30 -144 -56 -203.5t-48 -52.5q-28 12 -37.5 116t-8.5 226.5t3 188.5l1 27q0 11 7.5 18
t18.5 7q10 -1 17 -8t7 -18l-1 -27v0q-1 -44 -3 -121.5t-2.5 -159.5t1 -139t6.5 -61q-1 -11 45 217q42 201 78.5 279.5t67.5 69.5q38 -13 59 -99t34 -185q10 -71 20 -117q18 -83 49 -120l1 -1q12 -13 24 -14q14 -1 34 18q49 43 109 212q3 10 12 14.5t20 1.5z" />
    <glyph glyph-name="o" unicode="o" horiz-adv-x="473" 
d="M104 -65v0q-31 29 -55 75q-39 78 -46 179.5t35 192.5q54 104 112 114.5t104 -23.5q38 39 65 43q44 4 57 -46q10 -33 7 -87q-7 -112 -40 -241q49 5 123 93q7 8 17 9t19 -6q8 -7 9 -17t-6 -18q-101 -118 -176 -112q-23 -81 -45 -117q-49 -74 -105 -71q-41 1 -75 32z
M326 466v0q-10 -1 -33 -25q30 -30 40 -45q1 38 -5 60q-1 5 -2 8v2zM263 399v0q-37 -88 -8 -183q11 -32 30 -53q5 -5 10 -9q26 103 36 201v0q-9 -6 -19 -4t-16 11v0q-1 1 -9.5 11.5t-23.5 25.5zM83 360v0q-36 -80 -29.5 -169t40.5 -158q19 -38 44 -60q21 -19 41 -20
q30 -2 62 48q19 31 40 102q-18 10 -33 26q-27 28 -41 71q-17 54 -14 116.5t30 112.5q-32 19 -69 8t-71 -77z" />
    <glyph glyph-name="p" unicode="p" horiz-adv-x="509" 
d="M24 -755v0q-8 70 -12 249q-4 219 -5 491t0 481.5t2 239.5q1 11 8 17.5t18 7.5q10 -1 17 -8t7 -18q0 -30 -1 -239t-0.5 -480.5t5.5 -490.5v-12q15 210 36 639q8 144 29.5 226t51.5 113q36 37 76 28q36 -9 66 -45l1 -1q64 -81 79 -205q55 11 123 4q10 -1 16.5 -9t5.5 -18
q-1 -11 -9 -17.5t-18 -5.5q-66 6 -117 -5l-1 -7q-11 -111 -60 -177q-53 -72 -135 -87q-39 -5 -56 26q-8 13 -9 31q-29 -567 -47 -697q-20 -158 -37.5 -159t-33.5 128zM301 33v0q38 51 50 138q-92 -41 -130 -107q-21 -34 -27 -63q-5 -24 1 -35h3q63 11 103 67zM149 119v0
q-3 -59 -5 -114l1 6q7 37 33 80q25 41 68.5 77t105.5 58q-10 112 -67 184l-1 2q-20 23 -38 27q-14 4 -29 -12q-24 -25 -42.5 -99t-25.5 -209z" />
    <glyph glyph-name="q" unicode="q" horiz-adv-x="698" 
d="M385 -782v0q-31 -65 -66 -48v0v0q-32 23 -36.5 184.5t5.5 378.5v1q-42 -3 -73 17q-43 27 -51 95q-6 51 7 69q30 41 76 -11q21 -23 46 -67q7 135 14 257q1 2 1 4q4 73 7 135q-40 -81 -129 -206v0q-73 -94 -127 -52l-2 1q-31 24 -46 83t-12 135q4 73 26 144.5t65 124.5
q60 74 160 73.5t245 -120.5q8 -8 9 -18t-6 -18t-17 -8.5t-18 5.5q-124 103 -206 107t-129 -54q-37 -45 -56 -109t-22 -130q-3 -63 6.5 -110.5t30.5 -63.5v-1q18 -14 59 41v0v0q111 158 144.5 238t31.5 100l1 12v0q0 10 6.5 17t16.5 8q10 0 18 -6.5t9 -16.5v0v-8
q-2 -90 -15 -306q-9 -142 -17 -299q37 14 77 40q92 59 171 160.5t108 222.5q2 10 10.5 15.5t19.5 3.5q10 -2 15.5 -10.5t3.5 -19.5q-32 -131 -117 -240.5t-184 -173.5q-55 -36 -106 -51q52 -121 73.5 -265t-27.5 -260zM213 -113v0q-1 -1 -1 -5q0 2 1 3q1 3 1.5 4t-1.5 -2z
M242 -207v0q10 -6 22 -8l-2 4q-28 52 -50 79q1 -7 2 -16q5 -44 28 -59zM341 -784v0q1 -1 1 0t-1 3q-1 4 -2.5 9t1.5 11q34 79 28 177.5t-36 195.5q-7 -164 -6 -274.5t15 -121.5v0z" />
    <glyph glyph-name="r" unicode="r" horiz-adv-x="527" 
d="M557 238v0q9 -5 12.5 -14t-0.5 -19l-17 -35q-27 -59 -61.5 -125.5t-71 -114.5t-71.5 -52q-31 -2 -52 40.5t-26 143.5q-5 196 2 297q4 50 1 62v0q-3 6 -12 -7.5l-47 -69.5l-30 -39l-1 -1q-80 -99 -136 -100q-39 -2 -65 23q-22 23 -34 59q-16 49 -13 106.5t24 97.5
q12 20 25 26v0v0q27 12 44 -13q9 -12 14 -34l1 -2q15 -70 6 -211q35 6 94 79l1 1l31 39q60 80 91.5 107t50.5 -12q0 -1 1 -2q9 -26 4 -111q-7 -100 -1 -293q7 -143 25 -135q19 2 47.5 45.5t58.5 103.5l55 113q0 1 1 2q2 6 5.5 13.5l9.5 19.5q5 10 14.5 13.5t19.5 -1.5z
M1 288v0q4 104 -6 159q-11 -33 -11 -72t12 -73q2 -7 5 -14z" />
    <glyph glyph-name="s" unicode="s" horiz-adv-x="667" 
d="M211 -31v0q-60 43 -117 95t-84.5 115.5t3.5 139.5q36 80 92.5 131.5t121.5 76.5q69 28 133 25q67 -3 110 -37q42 -32 48 -88q0 -11 -6.5 -18.5t-16.5 -8.5q-11 -1 -18.5 5.5t-9.5 17.5q-3 34 -28 53q-30 24 -81 26q-53 2 -113 -21q-56 -22 -105 -67t-80 -115
q-24 -58 1.5 -110t76.5 -97t103 -82l14 -11q136 93 410 238q9 4 18.5 1t15.5 -12q4 -10 1 -19.5t-12 -14.5q-259 -137 -391 -226q47 -36 58 -70q20 -56 -83 -85q-98 -27 -139 -18q-46 10 -39 51q4 25 40 60q27 27 78 64zM254 -63v0q-56 -40 -85 -69q-17 -17 -23 -26
q32 -5 113 17q52 15 47 24q-7 20 -52 54z" />
    <glyph glyph-name="t" unicode="t" horiz-adv-x="196" 
d="M-340 703v0q-8 6 -9.5 16t4.5 19q0 2 36.5 40.5t114 91t199.5 96.5l2 343q-3 245 12 303v2q29 116 71 12q14 -36 26 -125q27 -200 7 -502q106 23 239.5 26.5t296.5 -23.5q11 -2 16.5 -10t4.5 -19q-2 -11 -10.5 -16.5t-18.5 -4.5q-164 27 -297 23t-236 -29
q-17 -167 -64 -311l-1 -1047q-1 -10 -8 -17t-17 -8q-11 1 -18 8t-8 18l2 1043q-2 5 0 11l1 270q-108 -41 -176.5 -88t-100.5 -81t-32 -36q-7 -9 -17 -10.5t-19 5.5zM60 1536v0q-5 -75 -3 -227v0v0l-2 -327q8 2 17 4q21 306 -6 508q-3 23 -6 42zM55 930v0v-77q6 39 11 80
q-5 -2 -10 -3h-1z" />
    <glyph glyph-name="u" unicode="u" horiz-adv-x="825" 
d="M405 467q3 10 12 15t19 2q9 -3 14 -10t4 -16v0q-1 -4 -4 -74.5t-1 -167t15 -192.5t43.5 -140.5t115.5 51.5t197 296q6 10 15.5 12.5t18.5 -2.5q10 -5 12.5 -14.5t-2.5 -19.5q-126 -228 -211.5 -317.5t-137 -78t-77.5 87.5t-34.5 180.5t-6.5 201.5
q-109 -241 -169.5 -298.5t-110.5 -46.5q-43 5 -69 50q-23 40 -35 100t-12 120v0l-1 291q0 10 7.5 17.5t17.5 7.5q11 0 18 -7.5t7 -17.5l2 -291v0q12 -146 36 -185.5t58.5 -34t104 115.5t154.5 365z" />
    <glyph glyph-name="v" unicode="v" horiz-adv-x="491" 
d="M501 184v0q-12 -1 -27 -1q-42 -2 -86 -1t-84 14q-25 -151 -60 -266.5t-75 -134.5q-43 -18 -72 56q-56 158 -87 321t-44 275.5t-12 117.5q-1 11 5.5 18.5t17.5 8.5t18.5 -6t8.5 -17q0 -5 12.5 -115.5t43 -270.5t84.5 -314q6 -17 7 -23q0 -4 1 -4q26 14 54 124t51 254
q-52 33 -62 118t45 242q38 103 73 88q26 -16 24 -138.5t-25 -282.5q3 -1 5 -2q73 -19 156 -12h5q10 1 22 1q11 0 18 -7t8 -18q0 -10 -7 -17.5t-18 -7.5zM266 283v0q20 135 29 232.5t1 104.5q-1 1 -1.5 -1t-0.5 -7q3 -14 -7 -48q-40 -114 -42.5 -181.5t21.5 -99.5z" />
    <glyph glyph-name="w" unicode="w" horiz-adv-x="818" 
d="M645 235v0q-32 -287 -75 -404t-90 -109q-48 10 -86.5 106t-63.5 228q-46 -76 -111 -157q-83 -99 -129.5 -60.5t-66.5 155t-23 254t0.5 238.5t4.5 106q1 11 8.5 17.5t18.5 6.5q10 -1 17 -8.5t6 -18.5q0 -4 -4 -90t-3.5 -206t11 -226.5t39 -152.5t82.5 16q86 108 137 205
q-17 113 -21 208t9 137q15 46 54 34q19 -7 34 -19q43 -36 47 -108q4 -66 -26 -156q-17 -49 -45 -105q4 -25 9 -51q22 -121 50.5 -208.5t56.5 -94.5q25 -6 53.5 101t56.5 367q7 67 12 125q-57 124 -57 252v0q0 125 25 186q24 60 48.5 59.5t40.5 -78.5q20 -81 -5 -408
q51 -98 169 -134q11 -3 16 -12t2 -19t-11.5 -15t-18.5 -3q-106 30 -164 104q-3 -30 -7 -62zM600 618v0q1 -64 17 -131q12 211 -1 279q-16 -55 -16 -148zM356 220v0q6 14 10 28q27 80 24 136q-3 51 -29 72l-8 6q-17 -69 3 -242z" />
    <glyph glyph-name="x" unicode="x" horiz-adv-x="502" 
d="M536 207v0q-21 -33 -60 -79q-34 -40 -84 -91l-1 -1q-34 -33 -71 -37q-50 -4 -93 38q-38 38 -65 107q-9 24 -17 50q-80 -184 -126 -258q-29 -46 -49 -54q-49 -18 -45 51q3 63 70 270q26 77 38.5 130t14.5 86t-2.5 51t-14 24.5t-21 5t-22 -6.5t-17 -9.5t-7.5 -5.5
q-8 -6 -18 -5t-17 9q-7 9 -5.5 19t9.5 17q1 1 16.5 12t39 22.5t48 15t43 -10.5t24.5 -54.5t-7.5 -117t-53.5 -198.5q-48 -146 -62 -215q53 86 145 308q-24 146 10 324q32 139 75 172q28 22 55 11q23 -10 35 -43h-1h1q25 -68 -31 -233q-49 -132 -92 -237q12 -63 31 -111
q23 -60 54 -90q26 -26 52 -24q19 2 40 23l1 1q49 49 82 88q36 43 56 74q6 8 16 10.5t19 -3.5t11 -16t-4 -19zM185 594v0q-22 -112 -18 -212l56 146q50 147 30 201v0q-4 11 -6 12l-0.5 -0.5l-0.5 -0.5q0 -1 -3 -3q-31 -23 -58 -143z" />
    <glyph glyph-name="y" unicode="y" horiz-adv-x="578" 
d="M575 235v0q8 7 18 7.5t18 -6.5q7 -8 7.5 -18t-6.5 -18l-3 -2l-68 -75t-126 -149q-3 -134 -16 -271.5t-42 -247t-79 -159.5t-126 -9q-94 59 -79.5 171.5t93.5 247.5q91 153 202 289q1 168 -3 271q-48 -79 -178 -313q-69 -119 -119 -85q-41 30 -55 145t-13.5 234.5
t3.5 163.5v9q1 11 8 18t18 7q11 -1 17.5 -8.5t6.5 -17.5v-10q-2 -41 -3.5 -152.5t6.5 -217t36 -127.5q9 -8 51 65l133.5 238t69 116l20.5 32v0q6 9 16 11t19 -4q11 -8 11 -22q1 -14 3.5 -93.5t1.5 -198.5q125 146 156 176zM177 -669v0q70 -36 109.5 45.5t57.5 228t22 306.5
q-87 -111 -156 -230q-68 -117 -85 -211.5t52 -138.5z" />
    <glyph glyph-name="z" unicode="z" horiz-adv-x="537" 
d="M335 126v0q8 -23 12 -52q6 -89 -58.5 -176t-154.5 -142q-56 -35 -108 -47q-57 -14 -97 10q-48 29 -40 118q19 112 129 190t242 125q-29 31 -68.5 42.5t-78 11.5t-64 -3.5t-26.5 -4.5v0q-11 -2 -21 5q-8 7 -9 17t5 19v0q7 8 55 68.5l105 135.5t90 127q-1 -1 -4 -1
q-26 0 -67 -9q-95 -21 -196.5 -59t-129.5 -63q-8 -8 -18 -8t-18 7q-7 7 -7.5 17t6.5 18q33 30 142.5 72.5t210.5 65.5q46 9 77 9q46 1 57 -29q7 -19 -7 -41q-36 -58 -102 -145l-116 -148q55 5 123 -11t113 -74q98 32 164.5 47t69.5 15q10 2 18.5 -4t10.5 -16q2 -11 -4 -19
t-16 -11v0q-5 0 -67 -14t-153 -43zM254 574v0q-1 1 -1 0v0v0l1 -1v0v1zM108 -201v0q79 48 136.5 122t52.5 147q-3 23 -10 42q-125 -43 -228 -112t-120 -166q-5 -57 18 -70q20 -13 58 -4q43 10 93 41z" />
    <glyph glyph-name="braceleft" unicode="{" horiz-adv-x="368" 
d="M268 986v0q-25 0 -37 -20t-17.5 -53t-8.5 -71q-4 -60 -23 -164.5t-57 -143.5q38 -43 49.5 -142.5t13.5 -171.5q2 -48 6.5 -88.5t16 -65.5t35.5 -25q10 0 17.5 -7.5t7.5 -17.5q0 -11 -7.5 -18.5t-17.5 -7.5q-48 0 -70 32.5t-29 83.5t-9 111q-3 74 -15 171.5t-52 123.5
q-5 3 -9 9q-5 10 -2.5 19.5t11.5 15.5q41 26 60.5 128t23.5 162q4 51 12 94t30.5 70t70.5 27q10 0 17.5 -7.5t7.5 -17.5q0 -11 -7.5 -18.5t-17.5 -7.5z" />
    <glyph glyph-name="bar" unicode="|" horiz-adv-x="398" 
d="M204 889v0q11 0 18.5 -7t7.5 -18v-838q0 -10 -7.5 -17.5t-18.5 -7.5q-10 0 -17.5 7.5t-7.5 17.5v838q0 11 7.5 18t17.5 7z" />
    <glyph glyph-name="braceright" unicode="}" horiz-adv-x="375" 
d="M84 986q-10 0 -17.5 7.5t-7.5 18.5q0 10 7.5 17.5t17.5 7.5q48 0 70 -27t30.5 -70t12.5 -94q4 -60 23.5 -162t59.5 -128q9 -6 12 -15.5t-3 -19.5q-3 -6 -9 -9q-40 -26 -52 -123.5t-14 -171.5q-2 -60 -9.5 -111t-29 -83.5t-69.5 -32.5q-10 0 -17.5 7.5t-7.5 18.5
q0 10 7.5 17.5t17.5 7.5q24 0 35.5 25t16 65.5t6.5 88.5q2 72 13.5 171.5t49.5 142.5q-38 39 -57 143.5t-23 164.5q-3 38 -8.5 71t-17.5 53t-37 20v0z" />
    <glyph glyph-name="asciitilde" unicode="~" horiz-adv-x="744" 
d="M529 708v0q8 7 18 6.5t18 -7.5q7 -8 7 -18t-8 -18q-47 -41 -93 -36t-93 26q-40 17 -79.5 21.5t-77.5 -30.5q-8 -8 -17.5 -8t-17.5 8t-8 17.5t8 18.5q55 51 107.5 47t102.5 -27q36 -16 70 -21t63 21z" />
    <glyph glyph-name="sterling" unicode="&#xa3;" horiz-adv-x="642" 
d="M450 845v0q50 -22 87 -65q7 -9 6 -19t-9 -17q-9 -6 -19 -5.5t-17 8.5q-28 34 -68 52q-44 19 -89 15q-46 -4 -83 -34q-30 -24 -50 -68q-20 -54 7 -124.5t67 -140.5h149q11 0 18.5 -7.5t7.5 -17.5q0 -11 -7.5 -18.5t-18.5 -7.5h-122q28 -50 40.5 -91.5t-3.5 -71.5
l-104 -186l230 1q10 0 17.5 -7t7.5 -18t-7 -18t-18 -7l-273 -1q-10 0 -17.5 7t-7.5 18q0 7 3 12v0l125 224q8 16 -7.5 53t-42.5 85h-121q-11 0 -18 7.5t-7 18.5q0 10 7 17.5t18 7.5h94q-41 72 -64.5 146.5t1.5 138.5q25 55 64 86q50 41 110 46q59 5 114 -19z" />
    <glyph glyph-name="currency" unicode="&#xa4;" horiz-adv-x="727" 
d="M544 685v0q8 -8 8 -18t-8 -18l-68 -68q27 -29 27 -67t-27 -67l68 -68q8 -8 8 -17.5t-8 -18.5q-8 -7 -17.5 -7t-18.5 7l-74 75q-28 -13 -61 -13t-60 13l-75 -75q-8 -7 -17.5 -7t-17.5 7q-8 9 -8 18.5t8 17.5l68 68q-27 29 -27 67t27 67l-68 68q-8 8 -8 18t8 18q8 7 17.5 7
t17.5 -7l75 -74q27 13 60 13t61 -13l74 74q9 7 18.5 7t17.5 -7zM431 474v0q21 17 21 40t-21 40q-23 19 -58 19q-34 0 -57 -19q-21 -17 -21 -40t21 -40q23 -19 57 -19q35 0 58 19z" />
    <glyph glyph-name="yen" unicode="&#xa5;" horiz-adv-x="1179" 
d="M1020 612v0h-213q0 -34 -1 -69h214q10 0 17.5 -7t7.5 -18q0 -10 -7.5 -17.5t-17.5 -7.5h-216q-2 -64 -7 -124q77 17 133 14q11 -1 17.5 -8.5t6.5 -18.5q-1 -10 -8.5 -17t-18.5 -6q-56 2 -136 -17q-18 -169 -69 -261.5t-149 -41.5q-79 46 -97 95q-19 54 16 102
q30 42 88 76q78 45 172 71q15 285 0 529q-25 -95 -70 -217.5t-115 -252.5q-67 -115 -117 -82q-44 33 -58 159h-242q-10 0 -17.5 7.5t-7.5 17.5q0 11 7.5 18t17.5 7h237q-3 34 -5 69h-232q-10 0 -17.5 7.5t-7.5 17.5t7.5 17.5t17.5 7.5h230q-2 86 -1 154t2 94l1 7
q0 11 7.5 18t18.5 7q10 -1 17 -8.5t7 -17.5v-8v0q-2 -41 -3.5 -160t7.5 -232.5t38 -137.5q9 -8 49 63q85 157 132.5 300t66.5 235t18 95q2 11 10 17t19 5q9 -2 14.5 -8.5t6.5 -15.5t8.5 -125t8.5 -282h213q10 0 17.5 -7.5t7.5 -17.5t-7.5 -17.5t-17.5 -7.5zM598 57v0
q65 -34 100.5 39t48.5 208q-77 -24 -141 -61q-49 -29 -73 -62q-19 -27 -10 -55q12 -33 75 -69z" />
    <glyph glyph-name="brokenbar" unicode="&#xa6;" horiz-adv-x="449" 
d="M236 1051v0q10 0 17.5 -7.5t7.5 -17.5v-420q0 -10 -7.5 -17.5t-17.5 -7.5q-11 0 -18 7.5t-7 17.5v420q0 10 7 17.5t18 7.5zM236 462v0q10 0 17.5 -7.5t7.5 -18.5v-419q0 -10 -7.5 -17.5t-17.5 -7.5q-11 0 -18 7.5t-7 17.5v419q0 11 7 18.5t18 7.5z" />
    <glyph glyph-name="section" unicode="&#xa7;" horiz-adv-x="773" 
d="M496 1015v0q92 -37 129 -169q2 -10 -3 -18.5t-16 -11.5q-10 -2 -18.5 3t-11.5 16q-30 106 -101 134q-38 16 -79 12t-76 -26q-66 -40 -74 -125q-2 -74 38.5 -106t92.5 -50q44 -16 80 -38t53 -64q17 -48 5.5 -89t-41.5 -68q-11 -12 -25 -20q48 -21 80 -62t29 -120
q-12 -113 -98 -165q-45 -29 -98 -34q-54 -5 -104 16q-93 37 -130 169q-2 10 3.5 19t15.5 11q11 3 19.5 -2.5t10.5 -15.5q30 -106 101 -135q38 -16 79 -12t76 26q66 40 75 126q1 73 -39.5 105.5t-92.5 50.5l-7 2q-21 2 -41 10q-28 12 -50 39q-23 19 -34 50q-7 19 -9 38
q-5 55 23 95q19 28 46 44q-48 22 -80 63t-29 120q12 112 98 165q45 28 98 33q54 6 105 -16zM347 615v0q-29 -10 -47 -37q-8 -12 -12 -26v-5q6 -59 27 -88q26 -20 64 -34q8 0 16 2q25 6 45 24q42 38 22 104q-9 24 -33.5 39.5t-55.5 27.5q-2 -1 -5 -2q-11 -1 -21 -5z" />
    <glyph glyph-name="dieresis" unicode="&#xa8;" horiz-adv-x="760" 
d="M545 1281v0q16 0 28 -12t12 -29t-12 -28.5t-28 -11.5q-17 0 -29 11.5t-12 28.5t12 29t29 12zM210 1281v0q16 0 28 -12t12 -29t-12 -28.5t-28 -11.5q-17 0 -29 11.5t-12 28.5t12 29t29 12z" />
    <glyph glyph-name="copyright" unicode="&#xa9;" horiz-adv-x="1252" 
d="M870 453v0q8 -7 9 -17t-6 -18q-153 -185 -252.5 -230t-153.5 3q-45 40 -59 118t-4 164t38.5 152.5t69.5 82.5q34 12 67.5 -20t62.5 -119q3 -11 -1.5 -20t-15.5 -12q-10 -3 -19 1.5t-12 14.5q-41 120 -67 107q-25 -11 -45 -65.5t-28 -127.5q-9 -75 1 -140.5t44 -96.5
q38 -34 119 11.5t217 208.5q7 8 17 9t18 -6zM639 866v0q83 0 155.5 -33.5t127.5 -92.5t85.5 -136.5t30.5 -165.5t-30.5 -165.5t-85.5 -136.5t-127.5 -92.5t-155.5 -33.5t-155.5 33.5t-126.5 92.5q-55 59 -86 136.5t-31 165.5t31 165.5t86 136.5q54 59 126.5 92.5t155.5 33.5
zM885 171v0q103 110 103 267t-103 268q-102 109 -246 109t-246 -109q-102 -111 -102 -268t102 -267t246 -110t246 110z" />
    <glyph glyph-name="ordfeminine" unicode="&#xaa;" horiz-adv-x="611" 
d="M545 846v0q9 -6 12 -15.5t-2 -18.5q-75 -133 -129 -161q-37 -20 -67 -11q-29 10 -47 37q-14 22 -21.5 50.5t-7.5 53.5v51q-26 -60 -72 -126q-38 -50 -68 -51q-29 -2 -44 25q-11 18 -14 45q-5 46 7 101t39 90q39 44 78 49.5t66 -4.5q9 36 8 37q2 11 10 17t19 5
q10 -2 15.5 -9t5.5 -16v0v-214q0 -38 21 -76q8 -13 19 -16q11 -4 28 6q43 21 110 141q5 9 14.5 12t19.5 -2zM139 705v0h2h-1h-1v0v0zM170 736v0q68 100 91 177q-16 6 -41 2.5t-50 -31.5q-21 -27 -30 -71t-5 -82q2 -17 7 -25q8 3 28 30z" />
    <glyph glyph-name="guillemotleft" unicode="&#xab;" horiz-adv-x="722" 
d="M517 258v0q8 -6 10 -16t-3 -19q-7 -8 -16.5 -10t-18.5 3l-172 115v0q-3 2 -6 5q-6 8 -5 18t9 17l166 138q8 6 18 5t17 -9t6 -18t-9 -17l-140 -116zM380 258v0q8 -6 10 -16t-3 -19q-6 -8 -16 -10t-19 3l-172 115v0q-3 2 -6 5q-6 8 -5 18t9 17l166 138q8 6 18 5t17 -9
t6 -18t-9 -17l-140 -116z" />
    <glyph glyph-name="logicalnot" unicode="&#xac;" horiz-adv-x="837" 
d="M693 524v0q11 0 18 -7.5t7 -17.5v-189q0 -11 -7 -18.5t-18 -7.5q-10 0 -17.5 7.5t-7.5 18.5v164h-525q-10 0 -17.5 7t-7.5 18q0 10 7.5 17.5t17.5 7.5h550z" />
    <glyph glyph-name="registered" unicode="&#xae;" horiz-adv-x="1245" 
d="M618 856v0q83 0 155.5 -33.5t126.5 -92.5q55 -59 86 -136.5t31 -165.5t-31 -165.5t-86 -136.5q-54 -59 -126.5 -92.5t-155.5 -33.5t-155.5 33.5t-127.5 92.5t-86 136.5t-31 165.5t31 165.5t86 136.5t127.5 92.5t155.5 33.5zM864 161v0q102 110 102 267t-102 268
q-102 109 -246 109t-246 -109q-103 -111 -103 -268t103 -267q102 -110 246 -110t246 110zM703 404v0q41 -55 68 -121.5t37 -121.5q2 -11 -3.5 -19t-16.5 -11q-10 -1 -18.5 4.5t-10.5 16.5q-9 50 -33.5 111t-62.5 110q-12 16 -26 29q-19 -8 -42 -15q-19 -164 -39 -227
q-9 -30 -18 -42q-30 -38 -53 2q-9 15 -11 55q-4 83 -6 192q-19 4 -32 15t-15 28q-3 18 10 34q10 13 36 25q-2 100 -2 173.5v89.5q1 10 8 17t18 7t18 -7.5t7 -17.5q-1 -15 -0.5 -83.5t1.5 -163.5l25 4l12 2q4 57 8 124q4 69 32 98.5t67 26.5q45 -4 83 -40q37 -36 48 -90
q10 -46 -13.5 -95t-93.5 -89q10 -10 18 -21zM522 232v0q11 55 21 141q-12 -2 -25 -5q2 -72 4 -136zM548 426v0l1 13q-18 -3 -32 -6l1 -14q16 4 30 7zM646 461v0q61 31 82.5 68t14.5 71q-8 37 -34 63q-25 24 -50 26q-39 5 -47 -78q-4 -69 -8 -128q22 -8 42 -22z" />
    <glyph glyph-name="macron" unicode="&#xaf;" horiz-adv-x="670" 
d="M558 1094v0q11 0 18.5 -7t7.5 -18q0 -10 -7.5 -17.5t-18.5 -7.5h-434q-10 0 -17.5 7.5t-7.5 17.5q0 11 7.5 18t17.5 7h434z" />
    <glyph glyph-name="degree" unicode="&#xb0;" horiz-adv-x="522" 
d="M255 1430v0q56 0 96 -42q39 -42 39 -101q0 -58 -39 -100q-40 -43 -96 -43t-96 43q-38 42 -38 100q0 59 38 101q40 42 96 42zM314 1221v0q25 27 25 66t-25 66t-59 27t-59 -27t-25 -66t25 -66q25 -26 59 -26t59 26z" />
    <glyph glyph-name="plusminus" unicode="&#xb1;" horiz-adv-x="679" 
d="M554 353v0q11 0 18 -7.5t7 -17.5t-7 -17.5t-18 -7.5h-192v-192q0 -11 -7 -18t-18 -7q-10 0 -17.5 7t-7.5 18v192h-192q-10 0 -17.5 7.5t-7.5 17.5t7.5 17.5t17.5 7.5h192v192q0 10 7.5 17.5t17.5 7.5q11 0 18 -7.5t7 -17.5v-192h192zM487 48v0q11 0 18.5 -7t7.5 -18
q0 -10 -7.5 -17.5t-18.5 -7.5h-300q-11 0 -18 7.5t-7 17.5q0 11 7 18t18 7h300z" />
    <glyph glyph-name="uni00B2" unicode="&#xb2;" horiz-adv-x="483" 
d="M351 1065v0q10 -4 13.5 -13.5t0.5 -19.5q-5 -10 -14 -13.5t-19 0.5q-55 22 -89 31q-31 -35 -63 -35q-14 0 -27 8t-19 20q-11 18 -3 37q6 19 33 27q19 5 60 -2q18 30 30 67q8 25 11 48q2 21 -2 35q-3 16 -18 16q-19 0 -35 -18q-17 -18 -21 -49q-2 -11 -9.5 -17t-18.5 -5
t-17 9t-5 18q6 49 34 78q32 34 72 34q28 0 44 -14t23 -39q6 -24 3 -53t-13 -58q-11 -34 -28 -64q33 -10 77 -28z" />
    <glyph glyph-name="uni00B3" unicode="&#xb3;" horiz-adv-x="463" 
d="M311 1178v0q11 -16 15 -38q9 -38 -12 -73q-24 -34 -60 -40q-24 -5 -48 2l-1 1q-23 7 -39 25q-21 24 -19 63q2 11 9.5 17.5t18.5 5.5q10 -1 16.5 -8.5t6.5 -18.5q-1 -17 7 -26q6 -7 15 -10l1 -1q11 -3 23 -1q17 3 28 19q9 16 5 35q-3 12 -8 20q-3 5 -6 7q-16 -5 -28 7
q-6 8 -5.5 18t8.5 17q18 17 23 42q3 16 0 30q-2 9 -5 11q-1 1 -3 1q-3 0 -8.5 -2.5t-12.5 -9.5q-11 -12 -19 -42q-3 -11 -11.5 -16t-19.5 -3q-10 3 -15 11.5t-3 19.5q12 43 30 63q17 18 32.5 24t25.5 5q19 1 33 -10q20 -15 26 -42q4 -23 -1 -49q-4 -20 -13 -38q8 -7 14 -16z
" />
    <glyph glyph-name="acute" unicode="&#xb4;" horiz-adv-x="406" 
d="M218 1430v0q8 7 18 7t18 -8q7 -8 6.5 -18t-8.5 -18l-8 -8t-18.5 -21.5t-19 -28.5t-9.5 -30q-1 -11 -8.5 -17.5t-18.5 -6.5q-11 1 -17.5 8.5t-6.5 18.5q2 22 13 44t24.5 39.5t24 28z" />
    <glyph glyph-name="mu" unicode="&#xb5;" horiz-adv-x="825" 
d="M702 383v0q8 7 18 6t17 -9t6.5 -18t-8.5 -17q-30 -27 -57 -38q-34 -14 -61 -7q-29 7 -49 31q-18 20 -30 50q-27 69 -36.5 168t-8.5 192q-113 -313 -191 -387q-48 -49 -89 -44q-38 5 -63 42l1 -403q0 -10 -7 -17.5t-18 -7.5q-10 0 -17.5 7t-7.5 18l-2 595q-1 18 -1 36v0
l-2 469v0v0q0 11 7.5 18t18.5 7q10 0 17 -7t8 -18l2 -500q5 -101 38 -163q14 -24 30 -26q19 -2 49 29q44 45 103 173t132 362q2 9 9.5 14.5t16.5 4.5q11 -1 17.5 -8.5t5.5 -18.5v0q0 -6 -3 -64t-3 -142t8.5 -168t31.5 -142q10 -22 21 -35q11 -12 23 -16q13 -3 31 5
q19 8 43 29z" />
    <glyph glyph-name="periodcentered" unicode="&#xb7;" horiz-adv-x="286" 
d="M148 734v0q16 0 28 -12t12 -28q0 -17 -12 -29t-28 -12q-17 0 -29 12t-12 29q0 16 12 28t29 12z" />
    <glyph glyph-name="periodcentered" unicode="&#x2219;" horiz-adv-x="286" 
d="M148 734v0q16 0 28 -12t12 -28q0 -17 -12 -29t-28 -12q-17 0 -29 12t-12 29q0 16 12 28t29 12z" />
    <glyph glyph-name="cedilla" unicode="&#xb8;" horiz-adv-x="528" 
d="M372 -108v0v0q19 -27 8 -55v-1q-9 -22 -34 -40q-32 -23 -87 -33.5t-120 2.5q-11 3 -16.5 11.5t-3.5 18.5q3 10 11.5 15.5t18.5 4.5q113 -18 168 22q12 9 16 17v1q1 3 -1 7v0v0q-14 22 -99 34q-10 1 -16.5 8t-6.5 17v61q0 10 7 17.5t18 7.5q10 0 17.5 -7.5t7.5 -17.5v-39
q90 -17 112 -51z" />
    <glyph glyph-name="uni00B9" unicode="&#xb9;" horiz-adv-x="528" 
d="M257 1350v0q45 0 73 -53q24 -45 24 -107t-24 -107q-28 -53 -73 -53q-44 0 -72 53q-24 45 -24 107t24 107q28 53 72 53zM285 1107v0q18 33 18 83t-18 83q-13 26 -28 26q-14 0 -28 -26q-17 -33 -17 -83t17 -83q14 -26 28 -26q15 0 28 26z" />
    <glyph glyph-name="ordmasculine" unicode="&#xba;" horiz-adv-x="384" 
d="M223 1354v0q11 0 18 -7.5t7 -17.5v-279q0 -11 -7.5 -18t-17.5 -7t-17.5 7t-7.5 18v226l-40 -33q-8 -6 -18 -5t-17 9t-6 18t9 17l81 66v0q7 6 16 6z" />
    <glyph glyph-name="guillemotright" unicode="&#xbb;" horiz-adv-x="725" 
d="M540 338v0q8 -7 9 -17t-6 -18q-2 -3 -5 -5v0l-172 -115q-9 -5 -19 -3t-16 10q-5 9 -3 19t10 16l144 96l-140 116q-8 7 -9 17t6 18t17 9t18 -5zM401 298v0v0l-172 -115q-9 -5 -18.5 -3t-16.5 10q-5 9 -3 19t10 16l144 96l-140 116q-8 7 -9 17t6 18t17 9t18 -5l166 -138
q8 -7 9 -17t-5 -18q-3 -3 -6 -5z" />
    <glyph glyph-name="onequarter" unicode="&#xbc;" horiz-adv-x="954" 
d="M736 245v0q10 -1 16.5 -8t6.5 -17q0 -11 -6.5 -18t-16.5 -8v-120q0 -11 -7.5 -18.5t-18.5 -7.5q-10 0 -17.5 7.5t-7.5 18.5v120h-114h-6q-10 1 -16.5 8.5t-6.5 17.5q0 11 9 19l81 137q6 9 15.5 11.5t18.5 -2.5q10 -6 12.5 -15.5t-3.5 -19.5l-62 -105h72v149
q0 11 7.5 18.5t17.5 7.5q11 0 18.5 -7.5t7.5 -18.5v-149zM676 865v0q10 -5 13 -14.5t-2 -19.5l-421 -824q-5 -9 -14.5 -12t-18.5 1q-10 5 -13 15t2 19l420 824q5 10 15 13t19 -2zM255 710v0q-8 -6 -18 -5t-17 9t-6 18t9 17l81 66v0q7 5 16 5q10 0 17.5 -7t7.5 -18v-278
q0 -11 -7.5 -18t-17.5 -7t-17.5 7t-7.5 18v226z" />
    <glyph glyph-name="onehalf" unicode="&#xbd;" horiz-adv-x="998" 
d="M749 125v0q9 -5 13 -14t0 -19t-13.5 -14t-19.5 0q-54 22 -89 31q-30 -34 -63 -34q-14 0 -26.5 8t-19.5 19q-10 18 -3 38q7 19 33 26q20 6 61 -1q18 29 30 67q8 24 10 47q3 21 -1 36t-19 15q-18 0 -35 -17q-16 -18 -21 -50q-1 -10 -9 -16.5t-19 -5.5q-10 1 -16.5 9
t-5.5 19q7 48 34 78q33 34 72 34q28 0 44.5 -14.5t22.5 -38.5q7 -24 3 -54q-3 -28 -12 -58q-11 -33 -28 -64q33 -10 77 -27zM698 872v0q10 -5 13 -14.5t-2 -19.5l-420 -824q-6 -9 -15.5 -12t-18.5 1q-10 5 -13 15t2 19l421 824q5 10 14.5 13t18.5 -2zM277 717v0
q-8 -6 -18 -5t-17 9t-6 18t9 17l81 66v0q7 5 16 5q11 0 18 -7t7 -18v-278q0 -11 -7 -18t-18 -7q-10 0 -17.5 7t-7.5 18v226z" />
    <glyph glyph-name="threequarters" unicode="&#xbe;" horiz-adv-x="963" 
d="M259 505v0h-2q-23 8 -39 26q-21 24 -18 63q1 10 8.5 16.5t18.5 6.5q10 -1 16.5 -9t6.5 -18q-1 -17 7 -26q6 -8 16 -11v0q11 -3 23 -1q17 3 28 18q9 16 5 36q-2 12 -8 20q-3 5 -6 6q-15 -5 -27 8q-7 8 -6.5 18t8.5 17q18 17 23 42q3 16 1 29q-2 9 -6 12q-1 1 -3 1
q-3 0 -8.5 -2.5t-11.5 -9.5q-12 -12 -20 -43q-3 -10 -11.5 -15t-18.5 -3q-11 3 -16 11.5t-3 19.5q12 43 31 62q16 18 32 24t25 6q19 0 34 -10q19 -15 25 -42q5 -23 -1 -50q-3 -19 -13 -37q8 -7 14 -16q11 -17 15 -38q9 -38 -12 -73q-23 -34 -60 -40q-24 -5 -47 2zM711 864v0
q10 -5 13 -14.5t-2 -19.5l-421 -824q-5 -9 -14.5 -12t-18.5 1q-10 5 -13 15t2 19l420 824q5 10 15 13t19 -2zM735 244v0q10 -1 17 -8t7 -17q0 -11 -7 -18t-17 -8v-120q0 -11 -7.5 -18.5t-17.5 -7.5t-17.5 7.5t-7.5 18.5v120h-115h-5q-10 1 -17 8.5t-7 17.5q0 11 9 19l82 137
q5 9 15 11.5t19 -2.5q9 -6 11.5 -15.5t-2.5 -19.5l-62 -105h72v149q0 11 7.5 18.5t17.5 7.5t17.5 -7.5t7.5 -18.5v-149z" />
    <glyph glyph-name="questiondown" unicode="&#xbf;" horiz-adv-x="689" 
d="M556 262v0q11 -2 16.5 -10.5t3.5 -18.5q-17 -85 -53.5 -137t-84.5 -76q-51 -25 -104 -20q-54 5 -100 36q-47 32 -77.5 86t-34.5 127q-3 122 50 174.5t122 79.5q38 17 69 38.5t43 57.5q3 10 12 14.5t19 2.5q10 -4 15 -13t2 -19q-17 -51 -55 -78.5t-84 -47.5
q-57 -23 -101 -65.5t-42 -141.5q11 -121 90 -173q36 -24 76 -28q40 -3 78 15q78 36 111 177q2 11 10.5 16.5t18.5 3.5zM448 715v0q-17 0 -29 12t-12 29q0 16 12 28t29 12q16 0 28 -12t12 -28q0 -17 -12 -29t-28 -12z" />
  </font>
</defs>
</svg>
