<?xml version="1.0" encoding="utf-8"?>
<!-- Generator: Adobe Illustrator 23.0.1, SVG Export Plug-In . SVG Version: 6.00 Build 0)  -->
<svg version="1.1" id="Capa_1" xmlns="http://www.w3.org/2000/svg" xmlns:xlink="http://www.w3.org/1999/xlink" x="0px" y="0px"
	 viewBox="0 0 775 535.9" style="enable-background:new 0 0 775 535.9;" xml:space="preserve">
<style type="text/css">
	.st0{fill:none;}
	.st1{font-family:'OpenSans-Extrabold';}
	.st2{font-size:200px;}
</style>
<g>
	<g id="iconos_66_">
		<path d="M430.6,285.1c-3.3,0-6.4-0.7-9.6-1.6v103.8c0,6.1,3.8,11.5,9.5,13.5c1.6,0.6,3.2,0.8,4.8,0.8c4.2,0,8.3-1.9,11.1-5.2
			l91.4-111.3h-37.1l-51,62.1v-62.1H430.6z"/>
		<path d="M603,252l-9.9,10.2c-3.1,3.1-7.1,6.5-11.6,9.6l46.1,33.6c-3.9,8.7-6.2,18.4-6.2,28.6c0,38.5,31.2,69.7,69.7,69.7
			s69.7-31.2,69.7-69.7s-31.2-69.7-69.7-69.7c-17.9,0-34.2,6.8-46.6,18L603,252z M691.2,310.4c13.1,0,23.7,10.6,23.7,23.7
			s-10.6,23.7-23.7,23.7c-12.9,0-23.4-10.3-23.6-23.2c0-0.2,0-0.3,0-0.5c0-10.7,7.2-19.7,17-22.6
			C686.6,310.8,688.8,310.4,691.2,310.4z"/>
		<path d="M239.3,189.5h121.7l22,8.2l-4.5-32.3l-9.9-3.7c-1.6-0.6-3.3-0.9-5-0.9H239.3c-7.9,0-14.3,6.4-14.3,14.3
			S231.4,189.5,239.3,189.5z"/>
		<path d="M398.7,172.9l4.6,32.4l5.5,38.2c1,7.2,6.1,15.2,12.6,19.4c2.9,1.9,6,3.1,9.2,3.1h19.1h66.7h30.5c2.4,0,4.9-0.5,7.6-1.2
			c3.6-1,7.4-2.6,11-4.6c5.5-3,10.5-6.7,14-10.2l8.6-8.9l96.8-100.2c7.4-7.5,4.8-8.8-5.7-8.8H411.5c-10.5,0-17.9,4.9-16.4,15.3
			L398.7,172.9z"/>
	</g>
</g>
<rect x="20" y="138.3" class="st0" width="117" height="183"/>
<text transform="matrix(1 0 0 1 20 290.2746)" class="st1 st2">+</text>
</svg>
