<?xml version="1.0" encoding="iso-8859-1"?>
<!-- Generator: Adobe Illustrator 16.0.0, SVG Export Plug-In . SVG Version: 6.00 Build 0)  -->
<!DOCTYPE svg PUBLIC "-//W3C//DTD SVG 1.1//EN" "http://www.w3.org/Graphics/SVG/1.1/DTD/svg11.dtd">
<svg version="1.1" id="Capa_1" xmlns="http://www.w3.org/2000/svg" xmlns:xlink="http://www.w3.org/1999/xlink" x="0px" y="0px"
	 width="535.883px" height="535.883px" viewBox="0 0 535.883 535.883" style="enable-background:new 0 0 535.883 535.883;"
	 xml:space="preserve">
<g>
	<g id="iconos_66_">
		<path d="M205.594,285.082c-3.261,0-6.445-0.66-9.562-1.597v103.791c0,6.062,3.806,11.466,9.515,13.502
			c1.578,0.574,3.213,0.842,4.829,0.842c4.208,0,8.31-1.855,11.083-5.24l91.351-111.298h-37.112L224.719,347.2v-62.118H205.594z"/>
		<path d="M377.986,251.986l-9.878,10.223c-3.089,3.127-7.096,6.464-11.57,9.629l46.11,33.65c-3.94,8.73-6.188,18.398-6.188,28.602
			c0,38.499,31.212,69.711,69.711,69.711s69.711-31.212,69.711-69.711s-31.212-69.711-69.711-69.711
			c-17.93,0-34.233,6.828-46.589,17.959L377.986,251.986z M466.172,310.403c13.081,0,23.687,10.605,23.687,23.687
			s-10.605,23.687-23.687,23.687c-12.909,0-23.361-10.337-23.639-23.18c0-0.172-0.048-0.335-0.048-0.507
			c0-10.748,7.21-19.728,17.021-22.615C461.64,310.844,463.839,310.403,466.172,310.403z"/>
		<path d="M14.344,189.457h121.721l21.975,8.214l-4.476-32.302l-9.878-3.691c-1.616-0.602-3.309-0.908-5.03-0.908H14.344
			C6.426,160.77,0,167.186,0,175.113S6.426,189.457,14.344,189.457z"/>
		<path d="M173.684,172.895l4.619,32.36l5.46,38.193c1.033,7.229,6.11,15.176,12.623,19.421c2.869,1.865,5.986,3.089,9.208,3.089
			h19.125h66.68h30.542c2.353,0,4.935-0.479,7.574-1.224c3.634-1.023,7.392-2.64,10.987-4.6c5.47-2.975,10.547-6.675,13.999-10.175
			l8.568-8.864l96.829-100.196c7.393-7.478,4.839-8.816-5.68-8.816h-267.75c-10.519,0-17.911,4.934-16.419,15.348L173.684,172.895z"
			/>
	</g>
</g>
<g>
</g>
<g>
</g>
<g>
</g>
<g>
</g>
<g>
</g>
<g>
</g>
<g>
</g>
<g>
</g>
<g>
</g>
<g>
</g>
<g>
</g>
<g>
</g>
<g>
</g>
<g>
</g>
<g>
</g>
</svg>
