<?xml version="1.0" encoding="utf-8"?>
<!-- Generator: Adobe Illustrator 23.0.1, SVG Export Plug-In . SVG Version: 6.00 Build 0)  -->
<svg version="1.1" id="Capa_1" xmlns="http://www.w3.org/2000/svg" xmlns:xlink="http://www.w3.org/1999/xlink" x="0px" y="0px"
	 viewBox="0 0 59.6 52.4" style="enable-background:new 0 0 59.6 52.4;" xml:space="preserve">
<style type="text/css">
	.st0{stroke:#000000;stroke-width:1.1339;stroke-miterlimit:10;}
</style>
<g>
	<path class="st0" d="M32.9,43.2H12.5c-3.8,0-6.8-3.1-6.8-6.8s3-6.7,6.7-6.8c1.3-4.6,5.5-7.7,10.3-7.7c4,0,7.5,2.1,9.4,5.6
		c0.3,0,0.6,0,0.8,0c4.4,0,7.9,3.5,7.9,7.9C40.8,39.7,37.2,43.2,32.9,43.2z M12.5,30.6c-3.2,0-5.8,2.6-5.8,5.8s2.6,5.8,5.8,5.8h20.3
		c3.8,0,6.8-3.1,6.8-6.8c0-3.8-3.1-6.8-6.8-6.8c-0.3,0-0.7,0-1.1,0.1c-0.2,0-0.5-0.1-0.6-0.3c-1.6-3.3-4.9-5.4-8.6-5.4
		c-4.4,0-8.3,3-9.3,7.3c-0.1,0.2-0.3,0.4-0.5,0.4L12.5,30.6z"/>
	<path class="st0" d="M32.9,43.2c-0.3,0-0.5-0.2-0.5-0.5s0.2-0.5,0.5-0.5c3.8,0,6.8-3.1,6.8-6.8c0-3.8-3.1-6.8-6.8-6.8
		c-2,0-3.9,0.9-5.2,2.3c-0.2,0.2-0.5,0.2-0.7,0.1c-0.2-0.2-0.2-0.5-0.1-0.7c1.5-1.7,3.7-2.7,6-2.7c4.4,0,7.9,3.5,7.9,7.9
		C40.8,39.7,37.2,43.2,32.9,43.2z"/>
	<g>
		<path class="st0" d="M43.9,32.8c-0.1,0-0.3-0.1-0.4-0.2c-0.2-0.2-0.2-0.5,0-0.8c1.6-1.6,2.5-3.7,2.5-5.9c0-4.6-3.7-8.3-8.3-8.3
			c-2.4,0-4.7,1-6.3,2.9c-0.2,0.2-0.5,0.2-0.7,0.1c-0.2-0.2-0.2-0.5-0.1-0.7c1.8-2.1,4.4-3.2,7.1-3.2c5.2,0,9.4,4.2,9.4,9.4
			c0,2.5-1,4.9-2.8,6.7C44.2,32.7,44.1,32.8,43.9,32.8z"/>
		<g>
			<path class="st0" d="M37.7,13.5c-0.3,0-0.5-0.2-0.5-0.5V9c0-0.3,0.2-0.5,0.5-0.5s0.5,0.2,0.5,0.5v4C38.2,13.3,38,13.5,37.7,13.5z
				"/>
		</g>
		<g>
			<path class="st0" d="M54.6,26.5h-4c-0.3,0-0.5-0.2-0.5-0.5s0.2-0.5,0.5-0.5h4c0.3,0,0.5,0.2,0.5,0.5S54.9,26.5,54.6,26.5z"/>
		</g>
		<g>
			<path class="st0" d="M46.8,17.3c-0.1,0-0.3-0.1-0.4-0.2c-0.2-0.2-0.2-0.5,0-0.8l2.8-2.8c0.2-0.2,0.5-0.2,0.8,0
				c0.2,0.2,0.2,0.5,0,0.8l-2.8,2.8C47.1,17.3,47,17.3,46.8,17.3z"/>
		</g>
		<g>
			<path class="st0" d="M49.7,38.4c-0.1,0-0.3-0.1-0.4-0.2l-2.8-2.8c-0.2-0.2-0.2-0.5,0-0.8c0.2-0.2,0.5-0.2,0.8,0l2.8,2.8
				c0.2,0.2,0.2,0.5,0,0.8C49.9,38.4,49.8,38.4,49.7,38.4z"/>
			<path class="st0" d="M28.5,17.3c-0.1,0-0.3-0.1-0.4-0.2l-2.8-2.8c-0.2-0.2-0.2-0.5,0-0.8c0.2-0.2,0.5-0.2,0.8,0l2.8,2.8
				c0.2,0.2,0.2,0.5,0,0.8C28.8,17.3,28.7,17.3,28.5,17.3z"/>
		</g>
	</g>
</g>
</svg>
