<svg height="389pt" viewBox="0 -4 389.12 389" width="389pt" xmlns="http://www.w3.org/2000/svg"><path d="m88.746094 299.816406h-81.917969c-3.773437 0-6.828125-3.050781-6.828125-6.824218 0-3.773438 3.054688-6.828126 6.828125-6.828126h81.917969c3.769531 0 6.828125 3.054688 6.828125 6.828126 0 3.773437-3.058594 6.824218-6.828125 6.824218zm0 0"/><path d="m225.28125 381.738281h-218.453125c-3.773437 0-6.828125-3.054687-6.828125-6.828125v-354.988281c0-3.773437 3.054688-6.824219 6.828125-6.824219h81.917969c3.769531 0 6.828125 3.050782 6.828125 6.824219v266.242187h129.707031c3.769531 0 6.824219 3.054688 6.824219 6.828126v81.917968c0 3.773438-3.054688 6.828125-6.824219 6.828125zm-211.628906-13.65625h204.800781v-68.265625h-129.707031c-3.769532 0-6.824219-3.050781-6.824219-6.824218v-266.242188h-68.269531zm0 0"/><path d="m252.585938 272.511719c-3.746094 0-7.53125-.15625-11.257813-.457031-3.753906-.304688-6.554687-3.597657-6.25-7.359376.308594-3.75 3.480469-6.550781 7.359375-6.25 8.5.691407 17.347656.503907 25.820312-.582031 3.703126-.390625 7.160157 2.160157 7.636719 5.90625.480469 3.742188-2.164062 7.160157-5.902343 7.640625-5.710938.726563-11.566407 1.101563-17.40625 1.101563zm-37.480469-5.492188c-.65625 0-1.316407-.09375-1.980469-.292969-9.160156-2.769531-18.054688-6.515624-26.425781-11.132812-3.304688-1.828125-4.503907-5.976562-2.679688-9.28125 1.8125-3.296875 5.976563-4.496094 9.273438-2.679688 7.535156 4.160157 15.539062 7.53125 23.789062 10.027344 3.605469 1.085938 5.648438 4.898438 4.554688 8.503906-.890625 2.953126-3.601563 4.855469-6.53125 4.855469zm80.539062-1.828125c-2.816406 0-5.453125-1.753906-6.441406-4.5625-1.246094-3.558594.617187-7.453125 4.175781-8.707031 8.109375-2.851563 15.953125-6.578125 23.3125-11.085937 3.207032-1.964844 7.414063-.957032 9.386719 2.253906 1.964844 3.21875.957031 7.417968-2.261719 9.386718-8.175781 5.007813-16.890625 9.152344-25.90625 12.328126-.75.265624-1.515625.386718-2.265625.386718zm-127.992187-24.347656c-1.582032 0-3.175782-.546875-4.464844-1.667969-7.238281-6.273437-13.828125-13.320312-19.59375-20.949219-2.273438-3.007812-1.675781-7.289062 1.335938-9.5625 3.007812-2.285156 7.292968-1.679687 9.558593 1.332032 5.191407 6.867187 11.125 13.214844 17.636719 18.859375 2.851562 2.476562 3.15625 6.78125.691406 9.636719-1.347656 1.550781-3.253906 2.351562-5.164062 2.351562zm174.21875-3.953125c-1.808594 0-3.613282-.714844-4.953125-2.125-2.59375-2.734375-2.480469-7.054687.25-9.65625 6.25-5.933594 11.894531-12.539063 16.769531-19.636719 2.136719-3.101562 6.382812-3.894531 9.492188-1.761718 3.109374 2.132812 3.894531 6.386718 1.761718 9.492187-5.417968 7.878906-11.679687 15.21875-18.625 21.8125-1.316406 1.253906-3.007812 1.875-4.695312 1.875zm-206.882813-39.300781c-2.570312 0-5.03125-1.457032-6.191406-3.941406-4.046875-8.679688-7.183594-17.8125-9.316406-27.144532-.839844-3.671875 1.460937-7.332031 5.136719-8.171875 3.660156-.867187 7.339843 1.457031 8.175781 5.132813 1.917969 8.394531 4.738281 16.605468 8.378906 24.414062 1.59375 3.417969.113281 7.480469-3.300781 9.070313-.933594.433593-1.917969.640625-2.882813.640625zm237.558594-5.371094c-.867187 0-1.75-.167969-2.597656-.515625-3.488281-1.4375-5.148438-5.433594-3.707031-8.917969 3.28125-7.953125 5.722656-16.28125 7.25-24.753906.667968-3.707031 4.195312-6.171875 7.929687-5.507812 3.710937.671874 6.175781 4.21875 5.503906 7.933593-1.699219 9.417969-4.414062 18.683594-8.066406 27.539063-1.085937 2.636718-3.628906 4.222656-6.3125 4.222656zm-249.65625-47.460938c-3.722656 0-6.765625-2.988281-6.824219-6.722656l-.011718-2.058594c0-8.914062.867187-17.832031 2.574218-26.503906.726563-3.695312 4.324219-6.121094 8.011719-5.382812 3.699219.730468 6.109375 4.320312 5.378906 8.019531-1.53125 7.800781-2.3125 15.835937-2.3125 23.867187l.011719 1.847657c.058594 3.773437-2.949219 6.871093-6.71875 6.933593-.035156 0-.074219 0-.109375 0zm259.402344-1.953124c-3.769531 0-6.828125-3.054688-6.828125-6.828126 0-8.660156-.902344-17.300781-2.683594-25.671874-.789062-3.6875 1.566406-7.3125 5.253906-8.101563 3.699219-.804687 7.3125 1.566406 8.097656 5.261719 1.984376 9.296875 2.988282 18.890625 2.988282 28.511718 0 3.773438-3.058594 6.828126-6.828125 6.828126zm-248.910157-51.21875c-.898437 0-1.816406-.179688-2.691406-.554688-3.464844-1.492188-5.066406-5.507812-3.574218-8.972656 3.777343-8.78125 8.496093-17.1875 14.042968-25 2.179688-3.074219 6.4375-3.800782 9.515625-1.613282 3.078125 2.179688 3.800781 6.441407 1.617188 9.519532-4.988281 7.027344-9.238281 14.59375-12.636719 22.496094-1.109375 2.578124-3.628906 4.125-6.273438 4.125zm237.625-1.789063c-2.605468 0-5.097656-1.5-6.234374-4.03125-3.511719-7.839844-7.878907-15.347656-12.976563-22.3125-2.230469-3.039063-1.570313-7.3125 1.472656-9.542969 3.046875-2.238281 7.320313-1.566406 9.539063 1.476563 5.664062 7.738281 10.519531 16.078125 14.425781 24.789062 1.539063 3.441407.003906 7.480469-3.4375 9.019531-.90625.410157-1.855469.601563-2.789063.601563zm-206.273437-42.414063c-1.84375 0-3.679687-.738281-5.023437-2.199218-2.558594-2.773438-2.378907-7.09375.390624-9.644532 7.046876-6.496093 14.789063-12.253906 23.015626-17.121093 3.242187-1.917969 7.433593-.851563 9.351562 2.394531 1.925781 3.246094.851562 7.429688-2.394531 9.351562-7.40625 4.386719-14.375 9.574219-20.71875 15.414063-1.3125 1.207031-2.96875 1.804687-4.621094 1.804687zm174.25-1.316406c-1.617187 0-3.242187-.574218-4.546875-1.734375-6.425781-5.742187-13.472656-10.820312-20.945312-15.101562-3.273438-1.875-4.40625-6.046875-2.539063-9.320313 1.875-3.261718 6.046875-4.421875 9.316406-2.53125 8.304688 4.75 16.136719 10.390625 23.269531 16.765625 2.808594 2.511719 3.050782 6.832031.539063 9.636719-1.347656 1.515625-3.21875 2.285156-5.09375 2.285156zm-127.605469-26.28125c-2.851562 0-5.511718-1.800781-6.472656-4.65625-1.195312-3.578125.726562-7.445312 4.300781-8.644531 9.066407-3.039063 18.496094-5.121094 28.023438-6.1875 3.738281-.375 7.125 2.28125 7.542969 6.027344.417968 3.746093-2.28125 7.125-6.027344 7.546875-8.570313.953125-17.046875 2.824218-25.199219 5.558594-.71875.242187-1.449219.355468-2.167969.355468zm80.554688-.613281c-.6875 0-1.386719-.101563-2.074219-.320313-8.171875-2.601562-16.679687-4.347656-25.28125-5.179687-3.75-.363281-6.5-3.703125-6.132813-7.453125.359376-3.753906 3.65625-6.441406 7.453126-6.1367188 9.558593.9296878 19.011718 2.8632808 28.101562 5.7539068 3.59375 1.148437 5.582031 4.988281 4.4375 8.582031-.929688 2.898437-3.613281 4.753906-6.503906 4.753906zm0 0"/><path d="m252.585938 170.109375c-16.347657 0-31.34375-5.757813-40.117188-15.410156-2.53125-2.796875-2.324219-7.109375.464844-9.648438 2.785156-2.53125 7.101562-2.324219 9.640625.460938 6.132812 6.753906 17.632812 10.945312 30.011719 10.945312 12.238281 0 23.671874-4.125 29.839843-10.765625 2.570313-2.757812 6.882813-2.914062 9.648438-.351562 2.761719 2.566406 2.917969 6.882812.355469 9.644531-8.796876 9.472656-23.6875 15.125-39.84375 15.125zm0 0"/><path d="m204.800781 81.363281c0 7.539063-6.113281 13.652344-13.652343 13.652344-7.542969 0-13.65625-6.113281-13.65625-13.652344 0-7.539062 6.113281-13.652343 13.65625-13.652343 7.539062 0 13.652343 6.113281 13.652343 13.652343zm0 0"/><path d="m327.679688 81.363281c0 7.539063-6.113282 13.652344-13.652344 13.652344-7.542969 0-13.652344-6.113281-13.652344-13.652344 0-7.539062 6.109375-13.652343 13.652344-13.652343 7.539062 0 13.652344 6.113281 13.652344 13.652343zm0 0"/><path d="m88.746094 54.058594h-20.480469c-3.769531 0-6.824219-3.054688-6.824219-6.828125 0-3.773438 3.054688-6.828125 6.824219-6.828125h20.480469c3.769531 0 6.828125 3.054687 6.828125 6.828125 0 3.773437-3.058594 6.828125-6.828125 6.828125zm0 0"/><path d="m88.746094 81.363281h-20.480469c-3.769531 0-6.824219-3.054687-6.824219-6.828125 0-3.773437 3.054688-6.824218 6.824219-6.824218h20.480469c3.769531 0 6.828125 3.050781 6.828125 6.824218 0 3.773438-3.058594 6.828125-6.828125 6.828125zm0 0"/><path d="m88.746094 108.671875h-20.480469c-3.769531 0-6.824219-3.054687-6.824219-6.828125s3.054688-6.828125 6.824219-6.828125h20.480469c3.769531 0 6.828125 3.054687 6.828125 6.828125s-3.058594 6.828125-6.828125 6.828125zm0 0"/><path d="m88.746094 135.976562h-20.480469c-3.769531 0-6.824219-3.054687-6.824219-6.828124 0-3.773438 3.054688-6.824219 6.824219-6.824219h20.480469c3.769531 0 6.828125 3.050781 6.828125 6.824219 0 3.773437-3.058594 6.828124-6.828125 6.828124zm0 0"/><path d="m88.746094 163.285156h-20.480469c-3.769531 0-6.824219-3.054687-6.824219-6.828125 0-3.773437 3.054688-6.828125 6.824219-6.828125h20.480469c3.769531 0 6.828125 3.054688 6.828125 6.828125 0 3.773438-3.058594 6.828125-6.828125 6.828125zm0 0"/><path d="m88.746094 190.589844h-20.480469c-3.769531 0-6.824219-3.054688-6.824219-6.828125 0-3.773438 3.054688-6.824219 6.824219-6.824219h20.480469c3.769531 0 6.828125 3.050781 6.828125 6.824219 0 3.773437-3.058594 6.828125-6.828125 6.828125zm0 0"/><path d="m88.746094 217.898438h-20.480469c-3.769531 0-6.824219-3.054688-6.824219-6.828126 0-3.773437 3.054688-6.828124 6.824219-6.828124h20.480469c3.769531 0 6.828125 3.054687 6.828125 6.828124 0 3.773438-3.058594 6.828126-6.828125 6.828126zm0 0"/><path d="m88.746094 245.203125h-20.480469c-3.769531 0-6.824219-3.050781-6.824219-6.824219 0-3.773437 3.054688-6.828125 6.824219-6.828125h20.480469c3.769531 0 6.828125 3.054688 6.828125 6.828125 0 3.773438-3.058594 6.824219-6.828125 6.824219zm0 0"/><path d="m88.746094 272.511719h-20.480469c-3.769531 0-6.824219-3.054688-6.824219-6.828125 0-3.773438 3.054688-6.828125 6.824219-6.828125h20.480469c3.769531 0 6.828125 3.054687 6.828125 6.828125 0 3.773437-3.058594 6.828125-6.828125 6.828125zm0 0"/><path d="m197.972656 320.296875c-3.769531 0-6.824218-3.054687-6.824218-6.828125v-20.476562c0-3.773438 3.054687-6.828126 6.824218-6.828126 3.769532 0 6.828125 3.054688 6.828125 6.828126v20.476562c0 3.773438-3.058593 6.828125-6.828125 6.828125zm0 0"/><path d="m170.667969 320.296875c-3.769531 0-6.828125-3.054687-6.828125-6.828125v-20.476562c0-3.773438 3.058594-6.828126 6.828125-6.828126s6.824219 3.054688 6.824219 6.828126v20.476562c0 3.773438-3.054688 6.828125-6.824219 6.828125zm0 0"/><path d="m143.359375 320.296875c-3.769531 0-6.824219-3.054687-6.824219-6.828125v-20.476562c0-3.773438 3.054688-6.828126 6.824219-6.828126s6.828125 3.054688 6.828125 6.828126v20.476562c0 3.773438-3.058594 6.828125-6.828125 6.828125zm0 0"/><path d="m116.054688 320.296875c-3.769532 0-6.828126-3.054687-6.828126-6.828125v-20.476562c0-3.773438 3.058594-6.828126 6.828126-6.828126 3.769531 0 6.824218 3.054688 6.824218 6.828126v20.476562c0 3.773438-3.054687 6.828125-6.824218 6.828125zm0 0"/><path d="m88.746094 320.296875c-3.769532 0-6.824219-3.054687-6.824219-6.828125v-20.476562c0-3.773438 3.054687-6.828126 6.824219-6.828126 3.769531 0 6.828125 3.054688 6.828125 6.828126v20.476562c0 3.773438-3.058594 6.828125-6.828125 6.828125zm0 0"/><path d="m61.441406 320.296875c-3.769531 0-6.828125-3.054687-6.828125-6.828125v-20.476562c0-3.773438 3.058594-6.828126 6.828125-6.828126 3.769532 0 6.824219 3.054688 6.824219 6.828126v20.476562c0 3.773438-3.054687 6.828125-6.824219 6.828125zm0 0"/><path d="m34.132812 320.296875c-3.769531 0-6.824218-3.054687-6.824218-6.828125v-20.476562c0-3.773438 3.054687-6.828126 6.824218-6.828126 3.769532 0 6.828126 3.054688 6.828126 6.828126v20.476562c0 3.773438-3.058594 6.828125-6.828126 6.828125zm0 0"/></svg>