<?xml version="1.0" encoding="utf-8"?>
<!-- Generator: Adobe Illustrator 23.0.1, SVG Export Plug-In . SVG Version: 6.00 Build 0)  -->
<svg version="1.1" id="Layer_1" xmlns="http://www.w3.org/2000/svg" xmlns:xlink="http://www.w3.org/1999/xlink" x="0px" y="0px"
	 viewBox="0 0 512 512" style="enable-background:new 0 0 512 512;" xml:space="preserve">
<style type="text/css">
	.st0{stroke:#000000;stroke-width:1.9843;stroke-miterlimit:10;}
</style>
<g>
	<g>
		<path class="st0" d="M390.5,187.5l-20.2-45.3c-4.8-10.7-14-18.7-25.2-22c-16.5-4.8-34.2,1.5-43.9,15.6l-6.1,8.8
			c-5.1,7.4-13.4,11.7-22.4,11.7h-27.4c-8.9,0-17.3-4.4-22.4-11.7l-6.1-8.8c-9.8-14.2-27.4-20.4-43.9-15.6
			c-11.3,3.3-20.4,11.3-25.2,22l-20.2,45.3c-11.5,25.8-3.9,55.8,18.4,73c2.8,2.2,6.7,2.4,9.7,0.6l16-9.4l-1.2,6.3
			c-5.6,29,4.2,59.1,25.5,79.4c2,26.6,24.3,47.5,51.3,47.5h23.6c27.1,0,49.3-21,51.3-47.5c21.3-20.3,31.1-50.3,25.5-79.4l-1.2-6.3
			l16,9.4c3.1,1.8,6.9,1.6,9.7-0.6C394.4,243.3,402,213.2,390.5,187.5z M270.8,367.6h-23.6c-17.4,0-31.7-13-33.9-29.8L259,307
			l45.7,30.9C302.5,354.6,288.1,367.6,270.8,367.6z M259,284.5l-18.8-18c-0.2-0.2-0.6-0.6-0.3-1.4c0.3-0.8,0.9-0.8,1.2-0.8h35.8
			c0.3,0,0.9,0,1.2,0.8c0.3,0.8-0.1,1.2-0.3,1.4L259,284.5z M365.8,243l-27.1-16c-2.9-1.7-6.6-1.6-9.4,0.4c-2.8,2-4.2,5.4-3.5,8.7
			l4.8,25.2c4.2,22.1-2.6,44.9-17.9,61.1l-40-27l17-16.3c5.5-5.3,7.2-13.3,4.4-20.4c-2.8-7.1-9.6-11.7-17.3-11.7h-35.8
			c-7.6,0-14.4,4.6-17.3,11.7c-2.8,7.1-1.1,15.1,4.4,20.4l17,16.3l-40,27c-15.3-16.1-22.2-39-17.9-61.1l4.8-25.2
			c0.6-3.3-0.7-6.8-3.5-8.7c-1.5-1-3.2-1.6-5-1.6c-1.5,0-3,0.4-4.4,1.2l-27.1,16c-12.6-12.6-16.3-31.8-8.8-48.4l20.2-45.3
			c2.7-6,7.9-10.6,14.2-12.4c9.3-2.7,19.3,0.8,24.8,8.8l6.1,8.8c8.3,12,22,19.2,36.6,19.2h27.4c14.6,0,28.3-7.2,36.6-19.2l6.1-8.8
			c5.5-8,15.5-11.5,24.8-8.8c6.4,1.9,11.5,6.4,14.2,12.4l20.2,45.3C382.1,211.2,378.4,230.4,365.8,243z"/>
	</g>
</g>
<g>
	<g>
		<path class="st0" d="M492.9,286.8c-10.8-56.9-29.8-109.9-50.3-155.1l22.8-42c7.3-13.4,6.1-29.3-3-41.5
			c-9.1-12.3-24.1-17.9-39-14.8c-12.9,2.7-22.5,6.5-28,8.9c-11.2-16.3-27.3-28.9-45.8-36C329-1.5,306-2.1,285,4.7l-29,9.4l-29-9.4
			c-21-6.8-43.9-6.2-64.6,1.6c-18.5,7-34.6,19.7-45.8,36c-5.5-2.5-15.1-6.2-28-8.9c-15-3.1-29.9,2.5-39,14.8
			c-9.1,12.2-10.2,28.1-3,41.5l22.8,42C49,176.9,29.9,229.9,19.1,286.8c-7.3,38.3,12.1,77.1,47.2,94.4
			c100.9,49.8,167.2,95.7,181.9,125.9c1.5,3,4.5,4.9,7.8,4.9s6.3-1.9,7.8-4.9c14.7-30.2,81.1-76.1,181.9-125.9
			C480.8,363.9,500.2,325.1,492.9,286.8z M427,50.3c8.4-1.8,16.5,1.3,21.6,8.2c5.1,6.8,5.7,15.4,1.6,22.9l-16.7,30.8
			c-9.8-20.3-19.7-38.8-29-54.9C409.3,55.2,417,52.4,427,50.3z M61.8,81.4c-4.1-7.5-3.5-16.1,1.6-22.9c5.1-6.9,13.2-9.9,21.6-8.2
			c10,2.1,17.7,4.9,22.5,6.9c-9.3,16.1-19.2,34.6-29,54.9L61.8,81.4z M438.1,365.7c-67.9,33.5-151.2,80.4-182.1,121.4
			c-30.9-41-114.2-87.9-182.1-121.4c-28.1-13.9-43.6-45-37.8-75.7C54.3,194.8,96,110.6,127.9,56.8c9.3-15.6,23.7-27.8,40.7-34.2
			c9.1-3.5,18.8-5.2,28.5-5.2c8.3,0,16.7,1.3,24.6,3.9l31.7,10.2c1.7,0.6,3.6,0.6,5.3,0l31.7-10.2c17.3-5.6,36.1-5.1,53.1,1.3
			c17,6.4,31.4,18.6,40.7,34.2c31.9,53.8,73.6,138,91.7,233.3C481.7,320.7,466.1,351.8,438.1,365.7z"/>
	</g>
</g>
<g>
	<g>
		<path class="st0" d="M209.2,198.4l-14.7-6.4c-4.4-1.9-9.5,0.1-11.4,4.5c-1.9,4.4,0.1,9.5,4.5,11.4l14.7,6.4
			c1.1,0.5,2.3,0.7,3.5,0.7c3.3,0,6.5-1.9,8-5.2C215.6,205.4,213.6,200.3,209.2,198.4z"/>
	</g>
</g>
<g>
	<g>
		<path class="st0" d="M331.9,196.5c-1.9-4.4-7-6.4-11.4-4.5l-14.7,6.4c-4.4,1.9-6.4,7-4.5,11.4c1.4,3.3,4.6,5.2,8,5.2
			c1.2,0,2.3-0.2,3.5-0.7l14.7-6.4C331.8,206,333.8,200.9,331.9,196.5z"/>
	</g>
</g>
</svg>
