<svg height="496pt" viewBox="0 -152 496 496" width="496pt" xmlns="http://www.w3.org/2000/svg"><path d="m488 96h-248v-40c0-31.929688-51.59375-56-120-56s-120 24.070312-120 56v80c.0351562 3.734375.734375 7.433594 2.070312 10.921875 10.410157 26.542969 58.90625 45.078125 117.929688 45.078125h368c4.417969 0 8-3.582031 8-8v-80c0-4.417969-3.582031-8-8-8zm-282.398438 0c3.199219-1.496094 6.160157-3.113281 8.972657-4.800781.800781-.496094 1.601562-1.007813 2.402343-1.519531 1.992188-1.265626 3.855469-2.574219 5.597657-3.925782.441406-.347656.984375-.640625 1.410156-.984375v11.230469zm-85.601562-80c61.289062 0 104 21.078125 104 40s-42.710938 40-104 40-104-21.078125-104-40 42.710938-40 104-40zm360 160h-24v-40c0-4.417969-3.582031-8-8-8s-8 3.582031-8 8v40h-16v-24c0-4.417969-3.582031-8-8-8s-8 3.582031-8 8v24h-16v-40c0-4.417969-3.582031-8-8-8s-8 3.582031-8 8v40h-16v-24c0-4.417969-3.582031-8-8-8s-8 3.582031-8 8v24h-16v-40c0-4.417969-3.582031-8-8-8s-8 3.582031-8 8v40h-16v-24c0-4.417969-3.582031-8-8-8s-8 3.582031-8 8v24h-16v-40c0-4.417969-3.582031-8-8-8s-8 3.582031-8 8v40h-16v-24c0-4.417969-3.582031-8-8-8s-8 3.582031-8 8v24h-16v-40c0-4.417969-3.582031-8-8-8s-8 3.582031-8 8v40h-16v-24c0-4.417969-3.582031-8-8-8s-8 3.582031-8 8v24h-16v-40c0-4.417969-3.582031-8-8-8s-8 3.582031-8 8v40c-55.921875 0-96.304688-17.753906-102.960938-34.734375-.65625-1.679687-1.007812-3.464844-1.039062-5.265625v-51.199219c.425781.34375.96875.640625 1.398438.984375 1.761718 1.359375 3.640624 2.671875 5.640624 3.941406.800782.503907 1.554688 1.015626 2.402344 1.503907 2.816406 1.671875 5.773438 3.28125 8.992188 4.800781l.300781.128906c3.136719 1.449219 6.488281 2.785156 9.96875 4.054688 1.066406.394531 2.175781.761718 3.273437 1.128906 2.726563.9375 5.550782 1.800781 8.464844 2.625 1.167969.328125 2.3125.664062 3.503906.96875 4 1.046875 8.175782 2.015625 12.503907 2.839844h.222656c4.257813.796875 8.695313 1.46875 13.214844 2.046875 1.378906.183593 2.769531.320312 4.160156.480469 3.460937.382812 6.984375.699218 10.570313.953124 1.445312.101563 2.878906.214844 4.34375.292969 4.925781.265625 9.925781.441407 15.0625.441407h359.976562zm0 0"/><path d="m120 88c35.785156 0 72-10.992188 72-32s-36.214844-32-72-32-72 10.992188-72 32 36.214844 32 72 32zm0-48c36.375 0 56 11.351562 56 16s-19.625 16-56 16-56-11.351562-56-16 19.625-16 56-16zm0 0"/></svg>