<?xml version="1.0" encoding="utf-8"?>
<!-- Generator: Adobe Illustrator 23.0.1, SVG Export Plug-In . SVG Version: 6.00 Build 0)  -->
<svg version="1.1" id="Capa_1" xmlns="http://www.w3.org/2000/svg" xmlns:xlink="http://www.w3.org/1999/xlink" x="0px" y="0px"
	 viewBox="0 0 33.9 36.3" style="enable-background:new 0 0 33.9 36.3;" xml:space="preserve">
<g>
	<path d="M28.6,4.7H6c-1.3,0-2.3,1-2.3,2.2v23.6c0,1.2,1,2.2,2.3,2.2h22.7c1.2,0,2.3-1,2.3-2.2V7C30.9,5.7,29.9,4.7,28.6,4.7z
		 M12.4,31.6H7.1c-1.3,0-2.3-1.1-2.3-2.4v-5.5h7.6C12.4,23.7,12.4,31.6,12.4,31.6z M12.4,22.7H4.8V15h7.6
		C12.4,15,12.4,22.7,12.4,22.7z M21.3,22.7h-7.9V15h7.9C21.3,15,21.3,22.7,21.3,22.7z M21.3,31.6h-7.9v-7.9h7.9
		C21.3,23.7,21.3,31.6,21.3,31.6z M29.9,22.7h-7.6V15h7.6C29.9,15,29.9,22.7,29.9,22.7z M12.4,14H4.7V8.3C4.7,7,5.8,6,7,6h5.4
		L12.4,14L12.4,14z M21.2,14h-7.8V6h7.8V14z M29.9,29.2c0,1.3-1.1,2.4-2.5,2.4h-5.1v-7.9h7.6C29.9,23.7,29.9,29.2,29.9,29.2z
		 M29.9,14.1h-7.6V5.9h5.1c1.4,0,2.5,1,2.5,2.3V14.1z"/>
</g>
</svg>
