<svg xmlns="http://www.w3.org/2000/svg" height="511pt" version="1.1" viewBox="0 0 511.99973 511" width="511pt">
<g id="surface1">
<path d="M 15 180.492188 L 72.582031 180.492188 L 125.875 206.085938 C 178.898438 231.984375 242.332031 224.054688 287.394531 185.109375 C 289.832031 183.003906 293.703125 180.394531 298.3125 180.394531 L 346.988281 180.394531 C 367.15625 180.394531 384.269531 167.15625 389.96875 148.835938 L 434.054688 196.160156 C 442.539062 205.269531 454.539062 210.492188 466.984375 210.492188 C 504.144531 210.492188 525.039062 167.898438 503 138.515625 C 503 138.511719 503 138.511719 503 138.511719 L 466.984375 90.496094 C 424.667969 34.074219 357.980469 0.5 286.992188 0.5 L 205.179688 0.5 C 171.449219 0.5 137.984375 11.152344 110.382812 30.5 C 102.152344 30.535156 79.4375 30.527344 18.007812 30.5 L 15 30.5 C 6.714844 30.5 0 37.214844 0 45.5 L 0 165.496094 C 0 173.777344 6.714844 180.492188 15 180.492188 Z M 30 60.398438 C 112.863281 60.425781 115.105469 60.433594 115.976562 60.394531 C 118.984375 60.257812 121.882812 59.222656 124.292969 57.417969 C 147.484375 40.058594 176.210938 30.5 205.179688 30.5 L 286.992188 30.5 C 348.039062 30.5 406.355469 59.65625 442.984375 108.496094 L 479 156.511719 C 486.289062 166.230469 479.4375 180.492188 466.984375 180.492188 C 462.777344 180.492188 458.875 178.796875 456.003906 175.714844 L 389.96875 104.824219 C 381.484375 95.71875 369.484375 90.496094 357.042969 90.496094 L 240.386719 90.496094 C 232.101562 90.496094 225.386719 97.210938 225.386719 105.496094 C 225.386719 113.78125 232.101562 120.496094 240.386719 120.496094 L 346.988281 120.496094 C 355.257812 120.496094 361.988281 127.226562 361.988281 135.496094 C 361.988281 143.765625 355.257812 150.496094 346.988281 150.496094 L 298.3125 150.496094 C 287.359375 150.496094 276.800781 154.617188 267.78125 162.414062 C 232.019531 193.320312 181.46875 199.875 139 179.109375 C 138.96875 179.097656 138.9375 179.078125 138.90625 179.066406 L 82.492188 151.972656 C 80.464844 151 78.246094 150.496094 75.996094 150.496094 L 30 150.496094 Z M 30 60.398438 " style=" stroke:none;fill-rule:nonzero;fill:rgb(0%,0%,0%);fill-opacity:1;" />
<path d="M 14.964844 512.484375 L 496.949219 512.484375 C 505.234375 512.484375 511.949219 505.765625 511.949219 497.484375 L 511.949219 399.128906 C 511.949219 393.039062 508.269531 387.558594 502.636719 385.25 C 498.585938 383.589844 494.675781 381.511719 491.019531 379.074219 C 458.628906 357.480469 416.769531 357.480469 384.382812 379.074219 C 362.101562 393.929688 333.304688 393.925781 311.023438 379.074219 C 278.632812 357.480469 236.777344 357.480469 204.386719 379.074219 C 182.105469 393.929688 153.3125 393.925781 131.03125 379.074219 C 115.1875 368.511719 96.40625 362.929688 76.710938 362.929688 C 57.019531 362.929688 38.234375 368.511719 22.394531 379.074219 C 19.726562 380.851562 16.882812 381.847656 13.710938 382.113281 C 5.941406 382.765625 0.0664062 389.261719 0.0664062 397.0625 L 0.0664062 497.484375 C 0.0664062 505.765625 6.683594 512.484375 14.964844 512.484375 Z M 29.964844 408.800781 C 33.113281 407.554688 36.144531 405.960938 39.035156 404.035156 C 61.21875 389.246094 92.207031 389.246094 114.390625 404.035156 C 146.78125 425.628906 188.640625 425.628906 221.027344 404.035156 C 243.308594 389.179688 272.105469 389.179688 294.386719 404.035156 C 326.773438 425.628906 368.632812 425.628906 401.023438 404.035156 C 423.304688 389.179688 452.097656 389.179688 474.378906 404.035156 C 476.828125 405.667969 479.457031 407.191406 482.050781 408.59375 L 482.050781 482.484375 L 29.964844 482.484375 Z M 29.964844 408.800781 " style=" stroke:none;fill-rule:nonzero;fill:rgb(0%,0%,0%);fill-opacity:1;" />
<path d="M 301.957031 285.492188 C 301.957031 293.773438 295.242188 300.488281 286.957031 300.488281 C 278.671875 300.488281 271.957031 293.773438 271.957031 285.492188 C 271.957031 277.207031 278.671875 270.492188 286.957031 270.492188 C 295.242188 270.492188 301.957031 277.207031 301.957031 285.492188 Z M 301.957031 285.492188 " style=" stroke:none;fill-rule:nonzero;fill:rgb(0%,0%,0%);fill-opacity:1;" />
<path d="M 361.953125 345.488281 C 361.953125 353.773438 355.238281 360.488281 346.953125 360.488281 C 338.671875 360.488281 331.953125 353.773438 331.953125 345.488281 C 331.953125 337.203125 338.671875 330.488281 346.953125 330.488281 C 355.238281 330.488281 361.953125 337.203125 361.953125 345.488281 Z M 361.953125 345.488281 " style=" stroke:none;fill-rule:nonzero;fill:rgb(0%,0%,0%);fill-opacity:1;" />
<path d="M 421.953125 285.492188 C 421.953125 293.773438 415.238281 300.488281 406.953125 300.488281 C 398.667969 300.488281 391.953125 293.773438 391.953125 285.492188 C 391.953125 277.207031 398.667969 270.492188 406.953125 270.492188 C 415.238281 270.492188 421.953125 277.207031 421.953125 285.492188 Z M 421.953125 285.492188 " style=" stroke:none;fill-rule:nonzero;fill:rgb(0%,0%,0%);fill-opacity:1;" />
<path d="M 361.953125 225.492188 C 361.953125 233.777344 355.238281 240.492188 346.953125 240.492188 C 338.671875 240.492188 331.953125 233.777344 331.953125 225.492188 C 331.953125 217.207031 338.671875 210.492188 346.953125 210.492188 C 355.238281 210.492188 361.953125 217.207031 361.953125 225.492188 Z M 361.953125 225.492188 " style=" stroke:none;fill-rule:nonzero;fill:rgb(0%,0%,0%);fill-opacity:1;" />
<path d="M 106.996094 421.484375 L 75.996094 421.484375 C 67.714844 421.484375 60.996094 428.203125 60.996094 436.484375 C 60.996094 444.769531 67.714844 451.484375 75.996094 451.484375 L 106.996094 451.484375 C 115.28125 451.484375 121.996094 444.769531 121.996094 436.484375 C 121.996094 428.203125 115.28125 421.484375 106.996094 421.484375 Z M 106.996094 421.484375 " style=" stroke:none;fill-rule:nonzero;fill:rgb(0%,0%,0%);fill-opacity:1;" />
<path d="M 436.984375 421.484375 L 406.988281 421.484375 C 398.703125 421.484375 391.988281 428.203125 391.988281 436.484375 C 391.988281 444.769531 398.703125 451.484375 406.988281 451.484375 L 436.984375 451.484375 C 445.269531 451.484375 451.984375 444.769531 451.984375 436.484375 C 451.984375 428.203125 445.269531 421.484375 436.984375 421.484375 Z M 436.984375 421.484375 " style=" stroke:none;fill-rule:nonzero;fill:rgb(0%,0%,0%);fill-opacity:1;" />
<path d="M 271.992188 421.484375 L 241.992188 421.484375 C 233.707031 421.484375 226.992188 428.203125 226.992188 436.484375 C 226.992188 444.769531 233.707031 451.484375 241.992188 451.484375 L 271.992188 451.484375 C 280.273438 451.484375 286.992188 444.769531 286.992188 436.484375 C 286.992188 428.203125 280.273438 421.484375 271.992188 421.484375 Z M 271.992188 421.484375 " style=" stroke:none;fill-rule:nonzero;fill:rgb(0%,0%,0%);fill-opacity:1;" />
</g>
</svg>