<?xml version="1.0" encoding="utf-8"?>
<!-- Generator: Adobe Illustrator 16.0.0, SVG Export Plug-In . SVG Version: 6.00 Build 0)  -->
<!DOCTYPE svg PUBLIC "-//W3C//DTD SVG 1.1//EN" "http://www.w3.org/Graphics/SVG/1.1/DTD/svg11.dtd">
<svg xmlns="http://www.w3.org/2000/svg" xmlns:xlink="http://www.w3.org/1999/xlink" version="1.1" id="Shovel_x5F_Rake" x="0px" y="0px" width="512" height="512" viewBox="0 0 144.083 144" enable-background="new 0 0 144.083 144" xml:space="preserve">
<path d="M33.704,43.423h6c0-5.906,5.106-8.852,8.151-10.084l-2.25-5.563C38.042,30.835,33.704,36.538,33.704,43.423z"/>
<path d="M47.427,17.94l-0.699-0.166l-0.699,0.166c-7.453,1.787-21.55,9.41-21.55,25.482l0.001,26.221h14.364l-0.001,18.709  c-2.673,1.441-4.494,4.27-4.494,7.514v21.826c0,4.705,3.829,8.533,8.535,8.533h7.688c4.706,0,8.534-3.828,8.534-8.533V95.866  c0-3.244-1.821-6.072-4.494-7.516V69.644h14.365V43.423C68.978,27.351,54.881,19.728,47.427,17.94z M53.106,117.692  c0,1.396-1.137,2.533-2.534,2.533h-7.688c-1.397,0-2.535-1.137-2.535-2.533V95.866c0-1.396,1.138-2.535,2.535-2.535h7.688  c1.397,0,2.534,1.139,2.534,2.535V117.692z M62.978,63.644H48.612v23.688h-3.77l0.001-23.688H30.479l-0.001-20.221  c0-13.703,13.014-18.477,16.248-19.451c3.248,0.979,16.251,5.754,16.251,19.451V63.644z"/>
<path d="M113.604,32.647v27.531c0,1.91-1.555,3.465-3.465,3.465h-2.215h-4.887V32.976h-6v30.668h-4.883h-2.217  c-1.91,0-3.465-1.555-3.465-3.465V32.647h-6v27.531c0,5.219,4.246,9.465,9.465,9.465h2.217l-0.002,18.709  c-2.672,1.443-4.492,4.27-4.492,7.514v21.826c0,4.705,3.828,8.533,8.535,8.533h7.688c4.705,0,8.533-3.828,8.533-8.533V95.866  c0-3.244-1.82-6.07-4.492-7.514V69.644h2.215c5.219,0,9.465-4.246,9.465-9.465V32.647H113.604z M98.155,69.644h3.77v17.688h-3.771  L98.155,69.644z M106.417,117.692c0,1.396-1.137,2.533-2.533,2.533h-7.688c-1.398,0-2.535-1.137-2.535-2.533V95.866  c0-1.396,1.137-2.535,2.535-2.535h7.688c1.396,0,2.533,1.139,2.533,2.535V117.692z"/>
</svg>
