<?xml version="1.0" encoding="iso-8859-1"?>
<!-- Generator: Adobe Illustrator 19.0.0, SVG Export Plug-In . SVG Version: 6.00 Build 0)  -->
<svg version="1.1" id="Layer_1" xmlns="http://www.w3.org/2000/svg" xmlns:xlink="http://www.w3.org/1999/xlink" x="0px" y="0px"
	 viewBox="0 0 512 512" style="enable-background:new 0 0 512 512;" xml:space="preserve">
<g>
	<g>
		<path d="M503.467,490.71h-12.115l-91.273-159.72c-6.876-12.044-19.688-19.48-33.564-19.48h-16.623
			c-10.196,0-20.309-1.949-29.798-5.74l-9.554-3.822c-9.919-3.971-20.377-6.39-31.011-7.198c2.846-5.146,5.663-10.75,8.367-16.789
			c6.696-6.437,14.634-10.266,29.617-14.987c1.96-0.617,2.18-0.688,6.336-1.951c43.845,19.699,73.846,12.926,91.607-11.431
			c2.904-3.982,5.252-8.148,7.299-12.625c1.082-2.365,3.068-7.294,3.04-7.232c1.96-4.286,0.075-9.349-4.21-11.309
			c1.953,0.894-8.03-4.285-13.302-6.5c-16.127-6.774-32.253-9.385-47.903-5.305c-17.415,4.54-31.88,17.095-42.399,38.348
			c-0.309,0.094-0.596,0.182-0.875,0.267c-1.809,0.552-3.307,1.015-4.721,1.461c-5.522,1.74-10.294,3.419-14.538,5.179
			c7.905-24.944,11.36-50.533,9.257-76.217c51.796,9.65,86.131-5.686,105.437-37.759c4.542-7.546,7.914-15.521,10.429-23.826
			c0.912-3.013,1.66-5.894,2.339-8.876c0.326-1.432,1.035-4.776,1.102-5.062c1.077-4.588-1.768-9.18-6.356-10.258
			c-2.089-0.491-4.326-0.958-7.198-1.455c-4.207-0.727-8.721-1.316-13.496-1.704c-13.017-1.058-26.134-0.506-38.81,2.221
			c-27.024,5.814-48.458,20.636-61.661,45.873c-4.172-12.829-9.902-25.606-17.315-38.267c-0.517-44.76-22.08-72.167-57.128-84.748
			c-17.417-6.252-33.926-7.897-51.525-7.525c-1.545,0.035-1.982,0.045-2.256,0.045c-4.713,0-8.533,3.82-8.533,8.533
			c0,0.391-0.01,0.851-0.046,2.336c-0.367,15.786,1.336,28.967,8.183,43.352c14.208,29.852,45.582,47.638,97.488,48.181
			c10.872,18.976,17.601,38.236,20.74,57.527c-0.003,0.057-0.005,0.114-0.007,0.172c-0.004,0.11-0.001,0.219-0.001,0.328
			c0,0.168,0,0.335,0.009,0.504c0.007,0.11,0.02,0.219,0.031,0.329c0.016,0.167,0.032,0.333,0.059,0.5
			c0.017,0.104,0.04,0.207,0.06,0.31c0.033,0.169,0.066,0.337,0.11,0.505c0.026,0.099,0.058,0.195,0.088,0.293
			c0.049,0.164,0.097,0.328,0.157,0.491c1.041,7.394,1.571,14.79,1.602,22.174c-9.18-12.703-21.72-20.773-36.808-24.569
			c-13.897-3.496-28.322-3.08-42.487-0.315c-3.392,0.662-6.15,1.336-8.628,1.995c-4.528,1.104-7.333,5.637-6.299,10.182
			c0.046,0.201,0.561,2.702,0.799,3.779c0.496,2.24,1.041,4.395,1.708,6.645c1.838,6.207,4.317,12.162,7.681,17.814
			c14.307,24.033,39.987,35.666,78.456,29.104c-2.781,11.123-6.536,22.152-11.184,33.03c-3.608,8.445-7.47,16.035-11.32,22.638
			c-0.969,1.663-1.833,3.087-2.586,4.291h-7.734c-11.232,0-21.639,5.891-27.414,15.519l-16.287,27.147h-26.204
			c-10.053,0-19.492,4.856-25.334,13.038l-23.909,33.466c-5.925,8.303-15.496,13.229-25.697,13.229
			c-16.641,0-32.123,8.498-41.045,22.533L20.916,490.71H8.533C3.82,490.71,0,494.53,0,499.243s3.82,8.533,8.533,8.533H25.6h460.8
			h17.067c4.713,0,8.533-3.82,8.533-8.533S508.18,490.71,503.467,490.71z M364.686,223.134c11.397-2.971,23.999-0.931,36.988,4.525
			c1.873,0.787,3.657,1.604,5.438,2.477c-1.571,3.399-3.334,6.504-5.445,9.399c-10.872,14.909-27.837,20.667-55.035,12.045
			c5.788-1.922,11.652-3.394,17.762-4.409c4.649-0.773,7.792-5.168,7.019-9.817s-5.168-7.792-9.817-7.019
			c-5.245,0.872-10.326,2.038-15.319,3.484C351.848,228.353,358.001,224.877,364.686,223.134z M364.142,105.624
			c10.894-2.344,22.376-2.827,33.837-1.896c3.641,0.296,6.899,0.689,9.849,1.147c-0.365,1.411-0.757,2.816-1.192,4.251
			c-2.13,7.035-4.962,13.733-8.716,19.97c-14.474,24.045-39.029,36.372-78.243,31.308c5.577-3.64,12.029-7.838,14.699-9.496
			c13.237-8.22,23.577-13.094,34.77-15.873c4.574-1.136,7.361-5.764,6.226-10.338c-1.136-4.574-5.764-7.361-10.338-6.226
			c-13.198,3.277-25.041,8.859-39.661,17.938c-2.334,1.449-7.288,4.66-12.127,7.813
			C323.984,122.662,341.462,110.504,364.142,105.624z M185.68,51.204c-4.642-9.753-6.344-19.085-6.55-29.904
			c13.524,0.132,26.406,1.842,39.552,6.561c22.083,7.927,37.126,22.441,43.04,45.797c-10.641-9.885-22.314-18.319-35.78-25.638
			c-4.141-2.25-9.322-0.718-11.572,3.423c-2.25,4.141-0.718,9.322,3.423,11.572c13.412,7.289,24.829,15.774,35.254,25.946
			C216.656,85.797,195.636,72.122,185.68,51.204z M221.235,196.65c-2.579-4.332-4.522-9.001-5.982-13.93
			c-0.107-0.36-0.21-0.718-0.309-1.074c11.797-2.262,23.716-2.575,34.689,0.186c12.134,3.053,21.898,9.615,28.883,20.585
			c-0.931-0.554-1.839-1.085-2.746-1.607c-2.584-1.485-5.049-2.821-7.485-4.047c-4.21-2.119-9.34-0.424-11.459,3.786
			c-2.119,4.21-0.424,9.34,3.786,11.459c2.141,1.078,4.331,2.264,6.653,3.599c1.764,1.014,3.558,2.085,5.572,3.324
			C246.893,221.284,230.783,212.688,221.235,196.65z M41.146,490.71l39.568-62.175c5.791-9.11,15.84-14.625,26.644-14.625
			c0.836,0,1.668-0.033,2.499-0.075c0.354,0.045,0.711,0.075,1.077,0.075c14.154,0,25.6,11.446,25.6,25.6
			c0,4.713,3.82,8.533,8.533,8.533s8.533-3.82,8.533-8.533c0-14.337-7.064-27.004-17.896-34.738
			c4.282-3.072,8.099-6.84,11.24-11.241l23.908-33.464c2.639-3.696,6.904-5.891,11.446-5.891h31.036c14.154,0,25.6,11.446,25.6,25.6
			c0,4.713,3.82,8.533,8.533,8.533s8.533-3.82,8.533-8.533c0-18.78-12.112-34.697-28.953-40.405l12.377-20.63
			c2.691-4.486,7.541-7.232,12.779-7.232h19.362c11.189,0,22.263,2.132,32.635,6.284l9.559,3.824
			c11.505,4.596,23.767,6.959,36.133,6.959h16.623c7.087,0,13.668,3.481,17.68,9.218c-24.324,3.978-42.862,25.057-42.862,50.515
			c0,4.713,3.82,8.533,8.533,8.533s8.533-3.82,8.533-8.533c0-18.873,15.26-34.133,34.133-34.133c0.372,0,0.735-0.032,1.094-0.078
			l78.068,136.611H41.146z"/>
	</g>
</g>
<g>
</g>
<g>
</g>
<g>
</g>
<g>
</g>
<g>
</g>
<g>
</g>
<g>
</g>
<g>
</g>
<g>
</g>
<g>
</g>
<g>
</g>
<g>
</g>
<g>
</g>
<g>
</g>
<g>
</g>
</svg>
